<?xml version="1.0" encoding="UTF-8"?>
<svg version="1.1" xmlns="http://www.w3.org/2000/svg" width="1927" height="1922">
<path d="M0 0 C0.97121796 0.00215515 1.94243591 0.0043103 2.94308472 0.00653076 C17.28846041 0.05758665 31.26968819 0.48686788 45.375 3.3125 C46.40689453 3.51117676 47.43878906 3.70985352 48.50195312 3.91455078 C88.91795964 11.83518623 126.4594876 27.60180204 164.24450684 43.4803009 C174.15039655 47.64241864 184.07281515 51.76398645 194 55.875 C195.66684451 56.56580019 197.3336739 57.25663688 199.00048828 57.94750977 C212.76103071 63.64976161 226.52876578 69.33459503 240.29678345 75.01876831 C253.93134517 80.64794365 267.56211732 86.28614194 281.1875 91.9375 C282.02592438 92.28524475 282.86434875 92.6329895 283.72817993 92.99127197 C290.44756436 95.77835781 297.16660108 98.56628148 303.88562012 101.35424805 C309.7777479 103.79906445 315.6700188 106.24353551 321.5625 108.6875 C322.81953232 109.20887543 322.81953232 109.20887543 324.10195923 109.74078369 C337.85435627 115.4441663 351.61348637 121.13115436 365.375 126.8125 C385.03487999 134.92894536 404.68505716 143.06856749 424.33056641 151.21972656 C429.4219036 153.33209643 434.51363036 155.44352607 439.60546875 157.5546875 C440.45210083 157.90571533 441.29873291 158.25674316 442.17102051 158.6184082 C444.73900736 159.68312069 447.30700211 160.74781414 449.875 161.8125 C468.78576926 169.65286027 468.78576926 169.65286027 477.93392944 173.44857788 C481.29962857 174.84502797 484.66543603 176.24121687 488.03125 177.63739014 C489.71570838 178.33620154 491.40011613 179.03513502 493.08447266 179.73419189 C503.15007993 183.91159383 513.2212009 188.07516726 523.30078125 192.21875 C578.45463579 214.89821409 630.52953444 237.8224966 674.375 279.3125 C675.055625 279.95058594 675.73625 280.58867187 676.4375 281.24609375 C680.68807485 285.3490792 684.3808815 289.8551287 688.07421875 294.4609375 C689.50821901 296.23822136 690.9655529 297.99723113 692.45703125 299.7265625 C703.41862334 312.53881299 712.29167415 327.03987778 720.5625 341.6875 C721.08352295 342.6048291 721.6045459 343.5221582 722.14135742 344.46728516 C732.08000523 362.40846072 740.21761678 381.23578092 748 400.1875 C748.86634083 402.28353364 749.73329685 404.37931311 750.60083008 406.47485352 C752.35674224 410.71872848 754.10933766 414.96394717 755.85888672 419.21044922 C758.18004921 424.84302897 760.51136951 430.4713352 762.84765625 436.09765625 C763.55631559 437.80444316 764.26497445 439.51123026 764.97363281 441.21801758 C765.49165466 442.46562363 765.49165466 442.46562363 766.0201416 443.73843384 C767.76147697 447.93418742 769.49985464 452.13116559 771.23828125 456.328125 C774.00451571 463.00603693 776.77275968 469.68311089 779.54296875 476.359375 C787.40566887 495.31009043 795.251077 514.26784925 803.08044434 533.23236084 C810.79537316 551.91882443 818.53460335 570.59513877 826.28222656 589.26806641 C830.16994842 598.63844381 834.05471846 608.01004558 837.94006348 617.38140869 C839.00429541 619.94829023 840.06854633 622.5151639 841.1328125 625.08203125 C841.48384033 625.92866333 841.83486816 626.77529541 842.1965332 627.64758301 C844.30079899 632.72253429 846.40571535 637.79721518 848.51116943 642.87167358 C856.71803422 662.65152816 864.90850088 682.43805183 873.08044434 702.23236084 C878.70989924 715.8675617 884.34852528 729.49891082 890 743.125 C890.34508606 743.95710999 890.69017212 744.78921997 891.04571533 745.64654541 C894.59749682 754.21069875 898.15117701 762.77406146 901.70730591 771.33641052 C905.64394856 780.81519047 909.57529998 790.29613791 913.49902344 799.78027344 C914.67730072 802.6281392 915.85742633 805.47522105 917.04003906 808.32128906 C932.97913393 846.71955526 947.74679315 886.56456148 951.375 928.3125 C951.53935547 930.08753906 951.53935547 930.08753906 951.70703125 931.8984375 C957.03467441 998.52949468 933.15858441 1059.57342105 907.65997314 1119.8009491 C903.03665563 1130.72211798 898.47326325 1141.66720218 893.9375 1152.625 C893.58564636 1153.4747641 893.23379272 1154.3245282 892.87127686 1155.20004272 C891.08560449 1159.51282636 889.30064284 1163.82590354 887.51611328 1168.13916016 C884.32727631 1175.84559186 881.13163356 1183.54920153 877.93649292 1191.25302124 C876.1657155 1195.52273149 874.39538016 1199.79262502 872.625 1204.0625 C871.91666878 1205.77083421 871.20833545 1207.47916754 870.5 1209.1875 C870.149375 1210.033125 869.79875 1210.87875 869.4375 1211.75 C798.24999977 1383.43750056 798.24999977 1383.43750056 797.18753052 1385.99992371 C796.47909292 1387.7085103 795.77065786 1389.41709795 795.06222534 1391.12568665 C793.29300809 1395.39265374 791.52374691 1399.65960261 789.75439453 1403.92651367 C786.547579 1411.66008526 783.34110284 1419.39379674 780.13623047 1427.12817383 C763.9041506 1466.30134898 763.9041506 1466.30134898 756.76171875 1483.39941406 C756.45808411 1484.12629425 756.15444946 1484.85317444 755.84161377 1485.6020813 C755.23647636 1487.05072947 754.63129287 1488.4993584 754.02606201 1489.94796753 C752.28440412 1494.12058802 750.55505049 1498.29803019 748.83644104 1502.48019409 C726.74583424 1556.22254611 698.52109093 1610.21415608 651.375 1646.3125 C650.71145508 1646.82538574 650.04791016 1647.33827148 649.36425781 1647.86669922 C618.76724212 1671.39503019 583.66265104 1688.4483791 548.03106689 1702.96627808 C544.04330479 1704.59124684 540.06043582 1706.22806753 536.07714844 1707.8639679 C533.98525457 1708.72299427 531.89313059 1709.58146047 529.80078125 1710.43937683 C518.68253629 1714.99982976 507.59024863 1719.62197556 496.5 1724.25 C494.49456791 1725.08639328 492.48911536 1725.92273751 490.48364258 1726.7590332 C486.45804362 1728.43784689 482.43258949 1730.1170072 478.40722656 1731.79638672 C469.39706051 1735.55508702 460.38494922 1739.3091187 451.37298584 1743.06350708 C446.37357772 1745.1463139 441.37429521 1747.22942219 436.375 1749.3125 C434.3750006 1750.14583478 432.3750006 1750.97916811 430.375 1751.8125 C429.385 1752.225 428.395 1752.6375 427.375 1753.0625 C376.375 1774.3125 325.375 1795.5625 274.375 1816.8125 C273.38514603 1817.22493958 272.39529205 1817.63737915 271.3754425 1818.06231689 C269.37396869 1818.89626347 267.37249367 1819.73020715 265.37101746 1820.56414795 C260.39355694 1822.63807508 255.41611688 1824.71205127 250.4387207 1826.78613281 C241.17052021 1830.64813283 231.90212528 1834.50966408 222.63302612 1838.36950684 C218.31411083 1840.16802607 213.99530834 1841.96681611 209.67651367 1843.765625 C207.64238994 1844.61276457 205.60821259 1845.45977544 203.57397461 1846.30664062 C201.65788356 1847.10432729 199.74187628 1847.90221523 197.82595825 1848.70031738 C195.99018737 1849.46487802 194.15415369 1850.22880802 192.31784058 1850.99206543 C187.88602666 1852.836724 183.46288137 1854.69863427 179.05322266 1856.59570312 C178.19964676 1856.96109192 177.34607086 1857.32648071 176.46662903 1857.70294189 C174.87677585 1858.38465014 173.2889214 1859.07104989 171.70365906 1859.7633667 C168.30481819 1861.21767532 165.02697579 1862.46532371 161.42114258 1863.29785156 C156.73395775 1864.3841331 152.44071724 1866.21278784 148.0234375 1868.09375 C146.19976558 1868.85681169 144.37586313 1869.6193226 142.55175781 1870.38134766 C141.60514282 1870.77864075 140.65852783 1871.17593384 139.68322754 1871.58526611 C102.35918748 1887.20128162 64.71688765 1899.65119355 24.375 1904.3125 C22.42400391 1904.53873047 22.42400391 1904.53873047 20.43359375 1904.76953125 C17.07268011 1905.07286281 13.74869395 1905.22580979 10.375 1905.3125 C9.57223633 1905.33828125 8.76947266 1905.3640625 7.94238281 1905.390625 C-50.56896271 1907.07379927 -103.43017823 1887.30224028 -156.51568604 1865.11486816 C-166.34969388 1861.00493951 -176.2013702 1856.93838442 -186.05514526 1852.87612915 C-209.09586701 1843.3745667 -232.11569783 1833.82255906 -255.13562012 1824.27075195 C-261.0277479 1821.82593555 -266.9200188 1819.38146449 -272.8125 1816.9375 C-273.65052155 1816.58991638 -274.48854309 1816.24233276 -275.35195923 1815.88421631 C-289.10435627 1810.1808337 -302.86348637 1804.49384564 -316.625 1798.8125 C-336.28487999 1790.69605464 -355.93505716 1782.55643251 -375.58056641 1774.40527344 C-380.6719036 1772.29290357 -385.76363036 1770.18147393 -390.85546875 1768.0703125 C-391.70210083 1767.71928467 -392.54873291 1767.36825684 -393.42102051 1767.0065918 C-395.98900736 1765.94187931 -398.55700211 1764.87718586 -401.125 1763.8125 C-419.95401525 1756.00603474 -419.95401525 1756.00603474 -429.18417358 1752.17633057 C-447.02004292 1744.77604522 -464.8598992 1737.38559624 -482.70870972 1730.01657104 C-490.40593202 1726.83856008 -498.10254896 1723.65908317 -505.79919434 1720.47967529 C-508.59812235 1719.32360159 -511.39719847 1718.16788703 -514.19628906 1717.01220703 C-526.01405304 1712.131924 -537.82535401 1707.2364395 -549.625 1702.3125 C-550.30844482 1702.02759705 -550.99188965 1701.74269409 -551.69604492 1701.44915771 C-591.68807421 1684.7677467 -629.92003833 1666.19595799 -662.625 1637.3125 C-663.470625 1636.57773438 -664.31625 1635.84296875 -665.1875 1635.0859375 C-675.87785136 1625.66335217 -685.98276374 1615.66417653 -694.625 1604.3125 C-695.41608154 1603.27947754 -695.41608154 1603.27947754 -696.22314453 1602.22558594 C-703.59252525 1592.55468777 -710.571531 1582.80667799 -716.55078125 1572.21240234 C-717.66427098 1570.24304392 -718.80024637 1568.28774855 -719.9375 1566.33203125 C-733.2319774 1543.21553467 -743.5597084 1518.78074249 -753.640625 1494.15039062 C-755.64127737 1489.26589274 -757.66191239 1484.3898268 -759.6875 1479.515625 C-760.02928284 1478.69309235 -760.37106567 1477.87055969 -760.72320557 1477.02310181 C-761.42128014 1475.34321056 -762.11938009 1473.66332985 -762.81750488 1471.98345947 C-769.67919606 1455.46367857 -776.50366065 1438.92846541 -783.32989502 1422.39401245 C-791.04500125 1403.7070887 -798.78441439 1385.03031663 -806.53222656 1366.35693359 C-809.7096607 1358.6985264 -812.88497729 1351.03924117 -816.06048584 1343.3800354 C-817.83190689 1339.10748891 -819.60346002 1334.83499718 -821.375 1330.5625 C-822.08333397 1328.85416693 -822.7916673 1327.1458336 -823.5 1325.4375 C-823.850625 1324.591875 -824.20125 1323.74625 -824.5625 1322.875 C-827.7500001 1315.18749977 -827.7500001 1315.18749977 -828.81253052 1312.62492371 C-829.52075959 1310.91684363 -830.22899119 1309.20876461 -830.93722534 1307.50068665 C-832.70967479 1303.22598708 -834.48207989 1298.95126913 -836.25439453 1294.67651367 C-839.42256109 1287.03513645 -842.59101227 1279.39387806 -845.76116943 1271.75332642 C-853.96803422 1251.97347184 -862.15850088 1232.18694817 -870.33044434 1212.39263916 C-875.95989929 1198.75743818 -881.59858917 1185.12611575 -887.25 1171.5 C-887.59741241 1170.6622403 -887.94482483 1169.82448059 -888.30276489 1168.96133423 C-891.79176933 1160.54807097 -895.28263005 1152.1355833 -898.77766418 1143.724823 C-902.30796023 1135.22920356 -905.83140849 1126.73079827 -909.34614563 1118.22872925 C-911.21046053 1113.7213601 -913.08081866 1109.2166224 -914.9609375 1104.71582031 C-955.01286968 1008.81926714 -965.22055761 923.83249563 -923.60836792 821.16897583 C-921.6344033 816.36629591 -919.64361819 811.57067689 -917.64898682 806.77655029 C-916.26967323 803.4574665 -914.89730674 800.13552969 -913.52497864 796.81355286 C-909.98252266 788.23849409 -906.42653453 779.66911229 -902.86372375 771.10249329 C-899.29781822 762.52800912 -895.74115789 753.94970349 -892.18548584 745.37097168 C-890.41571577 741.10131863 -888.64532642 736.83192239 -886.875 732.5625 C-886.1666637 730.8541679 -885.45833037 729.14583456 -884.75 727.4375 C-883.33333333 724.02083333 -881.91666667 720.60416667 -880.5 717.1875 C-880.14936493 716.34184982 -879.79872986 715.49619965 -879.43746948 714.62492371 C-878.72924041 712.91684363 -878.02100881 711.20876461 -877.31277466 709.50068665 C-875.54032521 705.22598708 -873.76792011 700.95126913 -871.99560547 696.67651367 C-868.82743891 689.03513645 -865.65898773 681.39387806 -862.48883057 673.75332642 C-854.68549975 654.94605314 -846.89512698 636.13351795 -839.125 617.3125 C-831.00855464 597.65262001 -822.86893251 578.00244284 -814.71777344 558.35693359 C-811.5403393 550.6985264 -808.36502271 543.03924117 -805.18951416 535.3800354 C-803.41809311 531.10748891 -801.64653998 526.83499718 -799.875 522.5625 C-799.16666603 520.85416693 -798.4583327 519.1458336 -797.75 517.4375 C-776.5 466.18749999 -776.5 466.18749999 -775.43762207 463.62532043 C-774.72885728 461.91592917 -774.02011707 460.20652771 -773.31140137 458.49711609 C-771.54737011 454.24238549 -769.78292058 449.98782933 -768.01757812 445.73364258 C-764.74870523 437.8549723 -761.48366551 429.9747877 -758.23327637 422.08847046 C-756.7273589 418.43543088 -755.21910387 414.78335839 -753.71069336 411.13134766 C-753.00462185 409.42007292 -752.2996466 407.70834532 -751.59594727 405.99609375 C-744.53658851 388.82067562 -737.14820312 371.79536175 -728.63867188 355.28222656 C-727.95331994 353.95047815 -727.27244356 352.61641845 -726.59570312 351.28027344 C-717.58247176 333.49718475 -706.94049543 316.98475398 -694.625 301.3125 C-693.85542969 300.32894531 -693.08585937 299.34539062 -692.29296875 298.33203125 C-686.42223934 291.0015529 -680.07616967 284.12991419 -673.625 277.3125 C-672.98691406 276.631875 -672.34882812 275.95125 -671.69140625 275.25 C-667.59169661 271.00281879 -663.0891592 267.31300258 -658.48828125 263.62109375 C-656.6741531 262.15840652 -654.87731811 260.6737826 -653.10546875 259.16015625 C-639.23340345 247.37635885 -623.4783494 238.14817338 -607.625 229.3125 C-606.62412354 228.74716553 -606.62412354 228.74716553 -605.60302734 228.17041016 C-581.64401744 214.69460065 -555.72016444 204.78022077 -530.30395508 194.44445801 C-520.93470626 190.63118358 -511.59175283 186.75503666 -502.25 182.875 C-500.5348465 182.16304795 -498.81967719 181.45113397 -497.10449219 180.73925781 C-493.66361046 179.31101415 -490.22287561 177.88241736 -486.78222656 176.45361328 C-479.08458524 173.25733878 -471.38496085 170.06584704 -463.68548584 166.87399292 C-459.41524272 165.10369106 -455.14512785 163.33307988 -450.875 161.5625 C-449.16666728 160.85416518 -447.45833395 160.14583185 -445.75 159.4375 C-444.904375 159.086875 -444.05875 158.73625 -443.1875 158.375 C-426.95833333 151.64583333 -410.72916667 144.91666667 -394.5 138.1875 C-393.65440018 137.83688507 -392.80880035 137.48627014 -391.93757629 137.12503052 C-390.2289897 136.41659292 -388.52040205 135.70815786 -386.81181335 134.99972534 C-382.54484626 133.23050809 -378.27789739 131.46124691 -374.01098633 129.69189453 C-366.27736415 126.48505802 -358.54360358 123.27855723 -350.80917358 120.07366943 C-333.74159551 113.00141014 -316.67663354 105.92312888 -299.625 98.8125 C-282.57647462 91.70316724 -265.51460493 84.62623439 -248.44989014 77.55586243 C-242.39387792 75.04639997 -236.33922366 72.53368146 -230.28515625 70.01953125 C-207.93997256 60.74123413 -185.57788936 51.50551528 -163.17938232 42.35662842 C-160.53194048 41.27446102 -157.88529029 40.19037492 -155.23876953 39.10595703 C-105.00693461 18.5329855 -55.03701515 -0.22017867 0 0 Z M-12 350.58203125 C-12.82025665 350.92965515 -13.64051331 351.27727905 -14.48562622 351.63543701 C-16.2663639 352.39151578 -18.04503266 353.15248182 -19.82183838 353.91775513 C-23.66077075 355.57107807 -27.50955779 357.20087334 -31.35769653 358.83262634 C-33.38091497 359.69095802 -35.40359163 360.55056778 -37.42575073 361.41139221 C-47.21263742 365.57562111 -57.038541 369.64256606 -66.8737793 373.69100952 C-71.70081124 375.67804753 -76.52607867 377.66936236 -81.3515625 379.66015625 C-82.7722403 380.24607292 -82.7722403 380.24607292 -84.22161865 380.84382629 C-93.8614923 384.82034405 -103.4936192 388.81546644 -113.125 392.8125 C-127.61909228 398.82684566 -142.11999243 404.82452874 -156.625 410.8125 C-176.28492175 418.92884391 -195.93505737 427.06856758 -215.58056641 435.21972656 C-224.95094381 439.10744842 -234.32254558 442.99221846 -243.69390869 446.87756348 C-246.26079023 447.94179541 -248.8276639 449.00604633 -251.39453125 450.0703125 C-252.24116333 450.42134033 -253.08779541 450.77236816 -253.96008301 451.1340332 C-259.03503429 453.23829899 -264.10971518 455.34321535 -269.18417358 457.44866943 C-288.96333521 465.65524671 -308.74881021 473.8462972 -328.54284668 482.01693726 C-338.79082835 486.24720876 -349.03745232 490.48064534 -359.27734375 494.73046875 C-360.13609604 495.08662766 -360.99484833 495.44278656 -361.87962341 495.80973816 C-366.10965211 497.56456687 -370.33800247 499.32324584 -374.56323242 501.08959961 C-382.32023281 504.32644132 -390.08910717 507.51535762 -397.92277527 510.56285095 C-401.56143734 511.97958437 -405.19250907 513.41525373 -408.82351685 514.85147095 C-410.54667425 515.52618902 -412.27375801 516.19097624 -414.00485229 516.84506226 C-416.39512543 517.7485545 -418.77002261 518.68490544 -421.14453125 519.62890625 C-421.84665741 519.88356659 -422.54878357 520.13822693 -423.27218628 520.40060425 C-428.05548937 522.35524355 -429.81448802 524.54062683 -431.7580719 529.09257507 C-432.04415817 529.8251503 -432.33024445 530.55772552 -432.625 531.3125 C-433.25721701 532.77947077 -433.88946054 534.2464301 -434.52172852 535.71337891 C-435.18550654 537.32068305 -435.84607103 538.92931697 -436.50390625 540.5390625 C-436.86811172 541.42321335 -437.2323172 542.3073642 -437.6075592 543.2183075 C-438.80362275 546.12358234 -439.99552211 549.0305468 -441.1875 551.9375 C-442.03337047 553.99386577 -442.87956768 556.05009716 -443.72607422 558.10620117 C-445.48517035 562.37968178 -447.24285988 566.65373675 -448.99951172 570.92822266 C-452.67836061 579.8773926 -456.37247043 588.82025258 -460.06741333 597.76278687 C-461.25606559 600.63968054 -462.44434699 603.51672717 -463.63256836 606.39379883 C-470.91533222 624.0256598 -478.22138659 641.64783234 -485.53222656 659.26806641 C-487.64459643 664.3594036 -489.75602607 669.45113036 -491.8671875 674.54296875 C-492.21821533 675.38960083 -492.56924316 676.23623291 -492.9309082 677.10852051 C-493.99562069 679.67650736 -495.06031414 682.24450211 -496.125 684.8125 C-503.93146526 703.64151525 -503.93146526 703.64151525 -507.76116943 712.87167358 C-515.56450025 731.67894686 -523.35487302 750.49148205 -531.125 769.3125 C-539.24144536 788.97237999 -547.38106749 808.62255716 -555.53222656 828.26806641 C-558.70984962 835.92692896 -561.88534346 843.58667437 -565.06103516 851.24633789 C-566.12265032 853.80683284 -567.18435662 856.36728999 -568.24609375 858.92773438 C-571.4527101 866.6607685 -574.65913794 874.39388008 -577.86352539 882.12783813 C-578.58445777 883.86750849 -579.305649 885.60707159 -580.02709961 887.3465271 C-581.80558937 891.63510715 -583.58032072 895.92515804 -585.34667969 900.21875 C-588.493961 907.85621282 -591.6721887 915.47317348 -595.00997925 923.02970886 C-596.46756281 926.33281355 -597.90519335 929.64444077 -599.34197998 932.95663452 C-600.02218786 934.50789028 -600.71275071 936.05465309 -601.41436768 937.59634399 C-602.3806229 939.72039961 -603.31046568 941.85725843 -604.234375 944 C-604.77030273 945.20011719 -605.30623047 946.40023437 -605.85839844 947.63671875 C-606.90611828 952.66043531 -605.58496322 955.6901506 -603.625 960.3125 C-603.18033386 961.4411145 -603.18033386 961.4411145 -602.72668457 962.5925293 C-601.76863885 965.01080052 -600.77507442 967.41197255 -599.7734375 969.8125 C-599.40234863 970.70890701 -599.03125977 971.60531403 -598.64892578 972.52888489 C-597.43553776 975.4579773 -596.21779493 978.3852374 -595 981.3125 C-594.14376098 983.37708034 -593.28780819 985.44177941 -592.43212891 987.5065918 C-590.68042037 991.73215708 -588.92694999 995.95698421 -587.171875 1000.18115234 C-584.84046627 1005.79258699 -582.51310977 1011.40569119 -580.1875 1017.01953125 C-576.003275 1027.11854689 -571.81453675 1037.21568697 -567.625 1047.3125 C-564.83289776 1054.04148603 -562.04108766 1060.77059307 -559.25 1067.5 C-558.90241638 1068.33802155 -558.55483276 1069.17604309 -558.19671631 1070.03945923 C-552.08995989 1084.76449956 -546.00271626 1099.49755985 -539.91955566 1114.23236084 C-532.20462684 1132.91882443 -524.46539665 1151.59513877 -516.71777344 1170.26806641 C-512.83005158 1179.63844381 -508.94528154 1189.01004558 -505.05993652 1198.38140869 C-503.99570459 1200.94829023 -502.93145367 1203.5151639 -501.8671875 1206.08203125 C-501.51615967 1206.92866333 -501.16513184 1207.77529541 -500.8034668 1208.64758301 C-498.69920101 1213.72253429 -496.59428465 1218.79721518 -494.48883057 1223.87167358 C-486.68549967 1242.67894705 -478.8952242 1261.49152206 -471.125 1280.3125 C-466.47842646 1291.566955 -461.83067388 1302.82091158 -457.171875 1314.0703125 C-456.81307755 1314.93720703 -456.45428009 1315.80410156 -456.08460999 1316.69726562 C-454.32118352 1320.95577549 -452.55261141 1325.21201259 -450.77319336 1329.46386719 C-447.63065279 1336.98336477 -444.52510141 1344.50907743 -441.58432007 1352.11019897 C-440.28138603 1355.47073971 -438.95385251 1358.82130357 -437.62414551 1362.17132568 C-437.00871029 1363.74247815 -436.40551192 1365.31848946 -435.8157959 1366.8994751 C-435.00303098 1369.07666252 -434.14919282 1371.23337143 -433.28515625 1373.390625 C-432.81730713 1374.61168945 -432.34945801 1375.83275391 -431.86743164 1377.09082031 C-428.65099088 1381.71184941 -424.72455894 1383.18869783 -419.625 1385.3125 C-418.84971451 1385.65140259 -418.07442902 1385.99030518 -417.27565002 1386.33947754 C-414.9292994 1387.35199911 -412.56966065 1388.32471909 -410.203125 1389.2890625 C-408.88114357 1389.83324829 -408.88114357 1389.83324829 -407.53245544 1390.38842773 C-404.64804301 1391.57490693 -401.76152189 1392.75616325 -398.875 1393.9375 C-396.82771543 1394.77873163 -394.78059937 1395.62037346 -392.73364258 1396.46240234 C-388.48210195 1398.21091351 -384.22984461 1399.95766423 -379.97705078 1401.703125 C-371.03808155 1405.37332875 -362.10727589 1409.06327133 -353.17672729 1412.75390625 C-350.29903588 1413.94306382 -347.42114623 1415.13174055 -344.54321289 1416.3203125 C-326.91147947 1423.60290967 -309.28949995 1430.90895618 -291.66943359 1438.21972656 C-286.5780964 1440.33209643 -281.48636964 1442.44352607 -276.39453125 1444.5546875 C-275.54789917 1444.90571533 -274.70126709 1445.25674316 -273.82897949 1445.6184082 C-271.26099264 1446.68312069 -268.69299789 1447.74781414 -266.125 1448.8125 C-247.29598475 1456.61896526 -247.29598475 1456.61896526 -238.06582642 1460.44866943 C-219.25855314 1468.25200025 -200.44601795 1476.04237302 -181.625 1483.8125 C-167.01642053 1489.84355091 -152.41115439 1495.88246103 -137.8125 1501.9375 C-136.97407562 1502.28524475 -136.13565125 1502.6329895 -135.27182007 1502.99127197 C-128.55243564 1505.77835781 -121.83339892 1508.56628148 -115.11437988 1511.35424805 C-109.2222521 1513.79906445 -103.32998636 1516.24354796 -97.4375 1518.6875 C-96.60346649 1519.03342194 -95.76943298 1519.37934387 -94.91012573 1519.73574829 C-84.88934743 1523.89144707 -74.86606929 1528.04105389 -64.83984375 1532.18359375 C-63.85024658 1532.59267975 -62.86064941 1533.00176575 -61.84106445 1533.42324829 C-56.90179131 1535.46443439 -51.96081967 1537.50130514 -47.01611328 1539.52929688 C-38.49951306 1543.02644937 -30.00679067 1546.55378604 -21.58984375 1550.28515625 C-19.60786722 1551.15161905 -17.6249879 1552.01597549 -15.64172363 1552.87948608 C-13.88031146 1553.65754598 -12.13264865 1554.46650772 -10.38574219 1555.27661133 C-9.34450195 1555.72931396 -8.30326172 1556.1820166 -7.23046875 1556.6484375 C-6.35543701 1557.04595215 -5.48040527 1557.4434668 -4.57885742 1557.85302734 C-0.10377424 1558.54912674 3.2455922 1556.97550184 7.375 1555.3125 C8.11828049 1555.02152435 8.86156097 1554.73054871 9.62736511 1554.43075562 C11.99476324 1553.48730965 14.34757544 1552.51328209 16.69921875 1551.53125 C18.0233226 1550.98281937 18.0233226 1550.98281937 19.37417603 1550.42330933 C22.271474 1549.22255269 25.16696942 1548.01751156 28.0625 1546.8125 C30.11404173 1545.96142652 32.16572067 1545.11068374 34.2175293 1544.26025391 C38.48115482 1542.49279453 42.74418657 1540.72391378 47.00683594 1538.95410156 C55.94071494 1535.24633302 64.88275209 1531.55835334 73.82427979 1527.86907959 C94.33602097 1519.40439545 114.83503286 1510.90910859 135.33056641 1502.40527344 C144.70094381 1498.51755158 154.07254558 1494.63278154 163.44390869 1490.74743652 C166.01079023 1489.68320459 168.5776639 1488.61895367 171.14453125 1487.5546875 C171.99116333 1487.20365967 172.83779541 1486.85263184 173.71008301 1486.4909668 C178.78503429 1484.38670101 183.85971518 1482.28178465 188.93417358 1480.17633057 C208.71402816 1471.96946578 228.50055183 1463.77899912 248.29486084 1455.60705566 C266.98132443 1447.89212684 285.65763877 1440.15289665 304.33056641 1432.40527344 C311.98942896 1429.22765038 319.64917437 1426.05215654 327.30883789 1422.87646484 C329.86933284 1421.81484968 332.42978999 1420.75314338 334.99023438 1419.69140625 C341.8534484 1416.8454736 348.71666682 1413.99955234 355.58056641 1411.15527344 C356.8723732 1410.61993233 356.8723732 1410.61993233 358.1902771 1410.07377625 C359.92993996 1409.35299602 361.66970636 1408.63246562 363.40957642 1407.91218567 C367.70000552 1406.13550972 371.98837215 1404.35417128 376.27246094 1402.56225586 C383.8841783 1399.38316012 391.50174914 1396.23934659 399.19535828 1393.26275635 C402.55001672 1391.96215289 405.89471105 1390.63698249 409.23886108 1389.30963135 C410.80788082 1388.69505899 412.38176342 1388.09273524 413.96060181 1387.50384521 C423.69659041 1384.18790582 423.69659041 1384.18790582 430.43359375 1376.91796875 C431.12079866 1375.06384174 431.76311235 1373.19282739 432.375 1371.3125 C433.14875127 1369.42700092 433.92347147 1367.54185386 434.71255493 1365.66271973 C435.92232527 1362.76226021 437.08210429 1359.84258315 438.24572754 1356.92337036 C439.89371177 1352.79214197 441.55764206 1348.66735758 443.22265625 1344.54296875 C443.56662445 1343.69077255 443.91059265 1342.83857635 444.26498413 1341.96055603 C447.79844034 1333.22864452 451.45214964 1324.54899328 455.125 1315.875 C461.04552834 1301.88122288 466.89401381 1287.85936399 472.6875 1273.8125 C473.08366516 1272.85204773 473.47983032 1271.89159546 473.88800049 1270.90203857 C475.90711714 1266.0061591 477.92524958 1261.1098747 479.94287109 1256.21337891 C483.95664399 1246.47341082 487.9783922 1236.73673503 492 1227 C492.39416107 1226.04558014 492.78832214 1225.09116028 493.19442749 1224.1078186 C500.87253902 1205.51679097 508.57380121 1186.93540878 516.28222656 1168.35693359 C518.39459643 1163.2655964 520.50602607 1158.17386964 522.6171875 1153.08203125 C522.96821533 1152.23539917 523.31924316 1151.38876709 523.6809082 1150.51647949 C524.74562069 1147.94849264 525.81031414 1145.38049789 526.875 1142.8125 C534.68146526 1123.98348475 534.68146526 1123.98348475 538.51116943 1114.75332642 C546.31450025 1095.94605314 554.10487302 1077.13351795 561.875 1058.3125 C567.20683452 1045.39758194 572.54092978 1032.48363373 577.89550781 1019.578125 C579.28762798 1016.22199187 580.67465451 1012.8638227 582.05761719 1009.50390625 C585.32426112 1001.5800849 588.6326272 993.680273 592.06710815 985.82746887 C593.70818606 982.06861519 595.32813774 978.30082664 596.94647217 974.53213501 C597.72374676 972.73845382 598.51134606 970.94920672 599.30987549 969.16488647 C600.41524157 966.69337947 601.48417377 964.20883803 602.546875 961.71875 C602.88018829 960.99867264 603.21350159 960.27859528 603.55691528 959.53669739 C605.64334421 954.51364853 605.34371381 951.49880278 603.32580566 946.47253418 C603.01203979 945.7597229 602.69827393 945.04691162 602.375 944.3125 C601.89724121 943.09949219 601.41948242 941.88648438 600.92724609 940.63671875 C600.42273926 939.43660156 599.91823242 938.23648438 599.3984375 937 C598.97538834 935.98934982 598.97538834 935.98934982 598.54379272 934.95828247 C597.93470548 933.50416643 597.32415983 932.05066055 596.71228027 930.59771729 C595.37486913 927.42164152 594.04495657 924.24244052 592.71435547 921.06350708 C592.00867719 919.37786361 591.30261666 917.69238012 590.59619141 916.00704956 C586.7487887 906.82700785 582.93522613 897.63302039 579.125 888.4375 C578.41520501 886.7252591 577.7054068 885.01301953 576.99560547 883.30078125 C571.20827088 869.33688303 565.43834748 855.36580555 559.67010498 841.39401245 C551.95499875 822.7070887 544.21558561 804.03031663 536.46777344 785.35693359 C532.58005158 775.98655619 528.69528154 766.61495442 524.80993652 757.24359131 C523.74570459 754.67670977 522.68145367 752.1098361 521.6171875 749.54296875 C521.26615967 748.69633667 520.91513184 747.84970459 520.5534668 746.97741699 C518.44920101 741.90246571 516.34428465 736.82778482 514.23883057 731.75332642 C506.03196578 711.97347184 497.84149912 692.18694817 489.66955566 672.39263916 C481.95462684 653.70617557 474.21539665 635.02986123 466.46777344 616.35693359 C463.64433912 609.55175409 460.82261427 602.74586599 458.00097656 595.93994141 C456.59449603 592.54751422 455.18757223 589.15527141 453.78027344 585.76318359 C450.45760347 577.7535071 447.13816564 569.74252947 443.82855225 561.72744751 C442.26384873 557.93860632 440.69753915 554.15043003 439.13110352 550.36230469 C438.38436811 548.55518245 437.63842101 546.74773424 436.89331055 544.93994141 C435.86055199 542.43439362 434.82508947 539.92997898 433.7890625 537.42578125 C433.48670685 536.69019485 433.1843512 535.95460846 432.87283325 535.19673157 C432.31111794 533.84182312 431.73967616 532.49089024 431.15681458 531.14494324 C430.43705063 529.45793634 429.78225983 527.74359852 429.1340332 526.02783203 C426.74055562 522.33313977 423.78722001 521.24377013 419.81640625 519.75390625 C419.05375458 519.44840851 418.29110291 519.14291077 417.50534058 518.82815552 C414.98973749 517.82495667 412.46394871 516.85052368 409.9375 515.875 C408.15997488 515.17067748 406.38337446 514.46401714 404.60766602 513.75512695 C400.96043286 512.30028638 397.30999717 510.8539623 393.65722656 509.41308594 C386.72089601 506.66675503 379.83986258 503.79222772 372.96228027 500.90261841 C369.28206321 499.35742251 365.59804001 497.82136041 361.9140625 496.28515625 C361.15730225 495.96947189 360.40054199 495.65378754 359.62084961 495.32853699 C349.65327396 491.17354087 339.6697987 487.05696353 329.6875 482.9375 C314.97452818 476.86531297 300.2646325 470.78588961 285.5625 464.6875 C284.72452881 464.33993652 283.88655762 463.99237305 283.02319336 463.63427734 C276.30335145 460.84700772 269.58385426 458.05890746 262.86437988 455.27075195 C256.9722521 452.82593555 251.0799812 450.38146449 245.1875 447.9375 C243.93046768 447.41612457 243.93046768 447.41612457 242.64804077 446.88421631 C228.89564373 441.1808337 215.13651363 435.49384564 201.375 429.8125 C181.71512001 421.69605464 162.06494284 413.55643251 142.41943359 405.40527344 C137.3280964 403.29290357 132.23636964 401.18147393 127.14453125 399.0703125 C126.29789917 398.71928467 125.45126709 398.36825684 124.57897949 398.0065918 C122.01099264 396.94187931 119.44299789 395.87718586 116.875 394.8125 C98.03214326 387.0002961 98.03214326 387.0002961 88.81634521 383.17654419 C84.60682277 381.42997283 80.3971853 379.68367881 76.1875 377.9375 C74.94809662 377.42337555 74.94809662 377.42337555 73.68365479 376.89886475 C63.39795465 372.63270656 53.10897331 368.37456574 42.81640625 364.125 C41.76590591 363.69126068 40.71540558 363.25752136 39.6330719 362.81063843 C34.50938886 360.69534895 29.38539367 358.58081934 24.26098633 356.46728516 C22.40055151 355.69954882 20.54011848 354.93180815 18.6796875 354.1640625 C17.83986832 353.81794922 17.00004913 353.47183594 16.13478088 353.11523438 C15.34506393 352.7892627 14.55534698 352.46329102 13.74169922 352.12744141 C12.99579529 351.82187317 12.24989136 351.51630493 11.48138428 351.20147705 C10.12757551 350.63011648 8.78385412 350.03388378 7.45465088 349.40740967 C-0.02279314 345.90924852 -4.85077435 347.46032185 -12 350.58203125 Z " fill="#55C920" transform="translate(963.625,-0.3125)"/>
<path d="M0 0 C0.97121796 0.00215515 1.94243591 0.0043103 2.94308472 0.00653076 C17.28846041 0.05758665 31.26968819 0.48686788 45.375 3.3125 C46.40689453 3.51117676 47.43878906 3.70985352 48.50195312 3.91455078 C88.91795964 11.83518623 126.4594876 27.60180204 164.24450684 43.4803009 C174.15039655 47.64241864 184.07281515 51.76398645 194 55.875 C195.66684451 56.56580019 197.3336739 57.25663688 199.00048828 57.94750977 C212.76103071 63.64976161 226.52876578 69.33459503 240.29678345 75.01876831 C253.93134517 80.64794365 267.56211732 86.28614194 281.1875 91.9375 C282.02592438 92.28524475 282.86434875 92.6329895 283.72817993 92.99127197 C290.44756436 95.77835781 297.16660108 98.56628148 303.88562012 101.35424805 C309.7777479 103.79906445 315.6700188 106.24353551 321.5625 108.6875 C322.81953232 109.20887543 322.81953232 109.20887543 324.10195923 109.74078369 C337.85435627 115.4441663 351.61348637 121.13115436 365.375 126.8125 C385.03487999 134.92894536 404.68505716 143.06856749 424.33056641 151.21972656 C429.4219036 153.33209643 434.51363036 155.44352607 439.60546875 157.5546875 C440.45210083 157.90571533 441.29873291 158.25674316 442.17102051 158.6184082 C444.73900736 159.68312069 447.30700211 160.74781414 449.875 161.8125 C468.78576926 169.65286027 468.78576926 169.65286027 477.93392944 173.44857788 C481.29962857 174.84502797 484.66543603 176.24121687 488.03125 177.63739014 C489.71570838 178.33620154 491.40011613 179.03513502 493.08447266 179.73419189 C503.15007993 183.91159383 513.2212009 188.07516726 523.30078125 192.21875 C578.45463579 214.89821409 630.52953444 237.8224966 674.375 279.3125 C675.055625 279.95058594 675.73625 280.58867187 676.4375 281.24609375 C680.68807485 285.3490792 684.3808815 289.8551287 688.07421875 294.4609375 C689.50821901 296.23822136 690.9655529 297.99723113 692.45703125 299.7265625 C703.41862334 312.53881299 712.29167415 327.03987778 720.5625 341.6875 C721.08352295 342.6048291 721.6045459 343.5221582 722.14135742 344.46728516 C732.08000523 362.40846072 740.21761678 381.23578092 748 400.1875 C748.86634083 402.28353364 749.73329685 404.37931311 750.60083008 406.47485352 C752.35674224 410.71872848 754.10933766 414.96394717 755.85888672 419.21044922 C758.18004921 424.84302897 760.51136951 430.4713352 762.84765625 436.09765625 C763.55631559 437.80444316 764.26497445 439.51123026 764.97363281 441.21801758 C765.49165466 442.46562363 765.49165466 442.46562363 766.0201416 443.73843384 C767.76147697 447.93418742 769.49985464 452.13116559 771.23828125 456.328125 C774.00451571 463.00603693 776.77275968 469.68311089 779.54296875 476.359375 C787.40566887 495.31009043 795.251077 514.26784925 803.08044434 533.23236084 C810.79537316 551.91882443 818.53460335 570.59513877 826.28222656 589.26806641 C830.16994842 598.63844381 834.05471846 608.01004558 837.94006348 617.38140869 C839.00429541 619.94829023 840.06854633 622.5151639 841.1328125 625.08203125 C841.48384033 625.92866333 841.83486816 626.77529541 842.1965332 627.64758301 C844.30079899 632.72253429 846.40571535 637.79721518 848.51116943 642.87167358 C856.71803422 662.65152816 864.90850088 682.43805183 873.08044434 702.23236084 C878.70989924 715.8675617 884.34852528 729.49891082 890 743.125 C890.34508606 743.95710999 890.69017212 744.78921997 891.04571533 745.64654541 C894.59749682 754.21069875 898.15117701 762.77406146 901.70730591 771.33641052 C905.64394856 780.81519047 909.57529998 790.29613791 913.49902344 799.78027344 C914.67730072 802.6281392 915.85742633 805.47522105 917.04003906 808.32128906 C932.97913393 846.71955526 947.74679315 886.56456148 951.375 928.3125 C951.53935547 930.08753906 951.53935547 930.08753906 951.70703125 931.8984375 C957.03467441 998.52949468 933.15858441 1059.57342105 907.65997314 1119.8009491 C903.03665563 1130.72211798 898.47326325 1141.66720218 893.9375 1152.625 C893.58564636 1153.4747641 893.23379272 1154.3245282 892.87127686 1155.20004272 C891.08560449 1159.51282636 889.30064284 1163.82590354 887.51611328 1168.13916016 C884.32727631 1175.84559186 881.13163356 1183.54920153 877.93649292 1191.25302124 C876.1657155 1195.52273149 874.39538016 1199.79262502 872.625 1204.0625 C871.91666878 1205.77083421 871.20833545 1207.47916754 870.5 1209.1875 C870.149375 1210.033125 869.79875 1210.87875 869.4375 1211.75 C798.24999977 1383.43750056 798.24999977 1383.43750056 797.18753052 1385.99992371 C796.47909292 1387.7085103 795.77065786 1389.41709795 795.06222534 1391.12568665 C793.29300809 1395.39265374 791.52374691 1399.65960261 789.75439453 1403.92651367 C786.547579 1411.66008526 783.34110284 1419.39379674 780.13623047 1427.12817383 C763.9041506 1466.30134898 763.9041506 1466.30134898 756.76171875 1483.39941406 C756.45808411 1484.12629425 756.15444946 1484.85317444 755.84161377 1485.6020813 C755.23647636 1487.05072947 754.63129287 1488.4993584 754.02606201 1489.94796753 C752.28440412 1494.12058802 750.55505049 1498.29803019 748.83644104 1502.48019409 C726.74583424 1556.22254611 698.52109093 1610.21415608 651.375 1646.3125 C650.71145508 1646.82538574 650.04791016 1647.33827148 649.36425781 1647.86669922 C615.98127785 1673.53736623 575.02709288 1699.42841497 531.375 1695.3125 C504.34695994 1691.5220096 480.9163451 1679.20600825 464.15625 1657.4296875 C452.39710364 1639.73939276 447.11516764 1619.14442373 450.7734375 1598.01074219 C456.03437274 1576.45102488 471.78057967 1558.25680532 490.22363281 1546.61083984 C495.71798895 1543.2950221 501.36691507 1540.23911167 506.97729492 1537.12548828 C514.2830105 1533.03245827 520.91872871 1528.66889543 527.375 1523.3125 C528.01824219 1522.81878906 528.66148438 1522.32507812 529.32421875 1521.81640625 C545.13433374 1509.2748993 556.34310932 1488.40880709 559.14355469 1468.54345703 C560.63959284 1454.12278543 560.09737323 1440.06157355 555.375 1426.3125 C555.01277344 1425.2503125 554.65054687 1424.188125 554.27734375 1423.09375 C546.52350369 1402.69720801 530.85911557 1387.0193867 511.234375 1377.95703125 C486.25945993 1367.04808037 459.96213168 1369.66852222 434.95703125 1379.0078125 C432.396513 1379.94043311 430.00873759 1380.6919878 427.375 1381.3125 C433.48419232 1365.82564263 439.79538793 1350.43179497 446.21557617 1335.07202148 C451.4265747 1322.60316844 456.59564518 1310.1173677 461.75 1297.625 C463.36961892 1293.70044952 464.98942143 1289.77597486 466.609375 1285.8515625 C467.00891891 1284.88364777 467.40846283 1283.91573303 467.82011414 1282.91848755 C471.87055931 1273.10837756 475.9334839 1263.30345732 480 1253.5 C480.3468988 1252.66369049 480.69379761 1251.82738098 481.0512085 1250.96572876 C482.7946883 1246.762717 484.53840342 1242.55980291 486.28222656 1238.35693359 C488.39459643 1233.2655964 490.50602607 1228.17386964 492.6171875 1223.08203125 C492.96821533 1222.23539917 493.31924316 1221.38876709 493.6809082 1220.51647949 C494.74562069 1217.94849264 495.81031414 1215.38049789 496.875 1212.8125 C504.68146526 1193.98348475 504.68146526 1193.98348475 508.51116943 1184.75332642 C516.31450025 1165.94605314 524.10487302 1147.13351795 531.875 1128.3125 C539.99144536 1108.65262001 548.13106749 1089.00244284 556.28222656 1069.35693359 C559.4601168 1061.69742708 562.63589283 1054.03704391 565.81185913 1046.3767395 C567.57633179 1042.12092485 569.34089389 1037.86514728 571.10546875 1033.609375 C571.45505142 1032.76625259 571.80463409 1031.92313019 572.16481018 1031.05445862 C573.96992259 1026.70096136 575.77515279 1022.34751298 577.58056641 1017.99414062 C577.9468515 1017.11085083 578.3131366 1016.22756104 578.69052124 1015.31750488 C579.42924826 1013.53640543 580.16820002 1011.75539917 580.90737915 1009.9744873 C582.71301141 1005.62327929 584.51477986 1001.27055955 586.30761719 996.9140625 C589.2337931 989.81293697 592.16718978 982.72124716 595.28569031 975.70196533 C596.47254653 973.02899041 597.64032058 970.34787277 598.80722046 967.6661377 C599.5964856 965.87713278 600.41648718 964.10178524 601.23754883 962.32714844 C604.16359787 955.86051505 604.16359787 955.86051505 603.5859375 949.03125 C602.87782249 947.44512949 602.13598059 945.87394602 601.375 944.3125 C600.64922353 942.54367326 599.92426337 940.7744857 599.20977783 939.00106812 C598.06963827 936.18905836 596.88995396 933.39417131 595.71228027 930.59771729 C594.37486913 927.42164152 593.04495657 924.24244052 591.71435547 921.06350708 C591.00867719 919.37786361 590.30261666 917.69238012 589.59619141 916.00704956 C585.7487887 906.82700785 581.93522613 897.63302039 578.125 888.4375 C577.41520501 886.7252591 576.7054068 885.01301953 575.99560547 883.30078125 C570.20827088 869.33688303 564.43834748 855.36580555 558.67010498 841.39401245 C550.95499875 822.7070887 543.21558561 804.03031663 535.46777344 785.35693359 C531.58005158 775.98655619 527.69528154 766.61495442 523.80993652 757.24359131 C522.74570459 754.67670977 521.68145367 752.1098361 520.6171875 749.54296875 C520.26615967 748.69633667 519.91513184 747.84970459 519.5534668 746.97741699 C517.44920101 741.90246571 515.34428465 736.82778482 513.23883057 731.75332642 C505.03196578 711.97347184 496.84149912 692.18694817 488.66955566 672.39263916 C480.95462684 653.70617557 473.21539665 635.02986123 465.46777344 616.35693359 C463.35540357 611.2655964 461.24397395 606.17386963 459.1328125 601.08203125 C458.78101425 600.23354111 458.429216 599.38505096 458.0667572 598.510849 C456.65349922 595.10220337 455.24027767 591.69354264 453.82705688 588.28488159 C450.15311081 579.42346834 446.4788074 570.56220399 442.80276489 561.70166016 C441.22707561 557.9036301 439.6516147 554.10550534 438.07617188 550.30737305 C437.3235194 548.4930352 436.57075446 546.678744 435.81787109 544.86450195 C434.77543325 542.35249355 433.7333795 539.84032614 432.69140625 537.328125 C432.23013084 536.21700348 432.23013084 536.21700348 431.75953674 535.08343506 C429.38993173 529.36861574 429.38993173 529.36861574 428.6340332 526.52783203 C426.66902358 523.07029909 423.46943241 522.20129195 419.9140625 520.8515625 C418.76796257 520.39119347 418.76796257 520.39119347 417.59870911 519.92152405 C415.07198947 518.91047171 412.5362078 517.92448083 410 516.9375 C408.21802351 516.22834504 406.43686429 515.51713325 404.65649414 514.80395508 C400.99793649 513.33933631 397.33660154 511.88200884 393.67333984 510.42919922 C386.73508366 507.66820501 379.84633439 504.79213952 372.96127319 501.90161133 C369.2811055 500.35743678 365.59758737 498.82130158 361.9140625 497.28515625 C361.15729721 496.96946686 360.40053192 496.65377747 359.62083435 496.32852173 C349.65325132 492.1735604 339.66979266 488.05696104 329.6875 483.9375 C314.97452818 477.86531297 300.2646325 471.78588961 285.5625 465.6875 C284.72452881 465.33993652 283.88655762 464.99237305 283.02319336 464.63427734 C276.30335145 461.84700772 269.58385426 459.05890746 262.86437988 456.27075195 C256.9722521 453.82593555 251.0799812 451.38146449 245.1875 448.9375 C244.34947845 448.58991638 243.51145691 448.24233276 242.64804077 447.88421631 C228.89564373 442.1808337 215.13651363 436.49384564 201.375 430.8125 C181.71512001 422.69605464 162.06494284 414.55643251 142.41943359 406.40527344 C137.3280964 404.29290357 132.23636964 402.18147393 127.14453125 400.0703125 C126.29789917 399.71928467 125.45126709 399.36825684 124.57897949 399.0065918 C122.01099264 397.94187931 119.44299789 396.87718586 116.875 395.8125 C98.03214326 388.0002961 98.03214326 388.0002961 88.81634521 384.17654419 C84.60682277 382.42997283 80.3971853 380.68367881 76.1875 378.9375 C75.36123108 378.59475037 74.53496216 378.25200073 73.68365479 377.89886475 C63.39795465 373.63270656 53.10897331 369.37456574 42.81640625 365.125 C41.76590591 364.69126068 40.71540558 364.25752136 39.6330719 363.81063843 C34.50938886 361.69534895 29.38539367 359.58081934 24.26098633 357.46728516 C22.40055151 356.69954882 20.54011848 355.93180815 18.6796875 355.1640625 C17.83986832 354.81794922 17.00004913 354.47183594 16.13478088 354.11523438 C15.34506393 353.7892627 14.55534698 353.46329102 13.74169922 353.12744141 C12.99579529 352.82187317 12.24989136 352.51630493 11.48138428 352.20147705 C10.12757551 351.63011648 8.78385412 351.03388378 7.45465088 350.40740967 C2.91232168 348.28237877 -0.60234474 347.37113983 -5.48730469 348.89248657 C-7.68947427 349.72618863 -9.84205597 350.63976499 -12 351.58203125 C-12.82025665 351.92965515 -13.64051331 352.27727905 -14.48562622 352.63543701 C-16.2663639 353.39151578 -18.04503266 354.15248182 -19.82183838 354.91775513 C-23.66077075 356.57107807 -27.50955779 358.20087334 -31.35769653 359.83262634 C-33.38091497 360.69095802 -35.40359163 361.55056778 -37.42575073 362.41139221 C-47.21263742 366.57562111 -57.038541 370.64256606 -66.8737793 374.69100952 C-71.70081124 376.67804753 -76.52607867 378.66936236 -81.3515625 380.66015625 C-82.29868103 381.05076736 -83.24579956 381.44137848 -84.22161865 381.84382629 C-93.8614923 385.82034405 -103.4936192 389.81546644 -113.125 393.8125 C-127.61909228 399.82684566 -142.11999243 405.82452874 -156.625 411.8125 C-176.28492175 419.92884391 -195.93505737 428.06856758 -215.58056641 436.21972656 C-224.95094381 440.10744842 -234.32254558 443.99221846 -243.69390869 447.87756348 C-246.26079023 448.94179541 -248.8276639 450.00604633 -251.39453125 451.0703125 C-252.24116333 451.42134033 -253.08779541 451.77236816 -253.96008301 452.1340332 C-259.03503429 454.23829899 -264.10971518 456.34321535 -269.18417358 458.44866943 C-288.96333521 466.65524671 -308.74881021 474.8462972 -328.54284668 483.01693726 C-340.51887868 487.96053186 -352.49123804 492.91277529 -364.45703125 497.88110352 C-367.84038893 499.28576945 -371.22449656 500.6886023 -374.609375 502.08959961 C-375.85172409 502.60383736 -375.85172409 502.60383736 -377.11917114 503.12846375 C-378.78360003 503.81740611 -380.448049 504.50629995 -382.11251831 505.19514465 C-387.20812515 507.30577891 -392.29763083 509.4305012 -397.38386536 511.56361389 C-471.4152385 542.58619727 -471.4152385 542.58619727 -504.625 530.3125 C-528.99965655 520.26305435 -546.23643216 503.60069396 -556.625 479.3125 C-556.89892578 478.68875488 -557.17285156 478.06500977 -557.45507812 477.42236328 C-564.64708105 460.29404053 -564.90545835 436.47116705 -558.30078125 419.12890625 C-557.75637547 417.85063482 -557.19709457 416.57862136 -556.625 415.3125 C-556.30321777 414.59819824 -555.98143555 413.88389648 -555.64990234 413.14794922 C-551.17885582 403.53488565 -545.85383034 395.12368795 -538.625 387.3125 C-537.94050781 386.54808594 -537.25601562 385.78367187 -536.55078125 384.99609375 C-526.01935771 373.80280625 -513.01187399 366.74302507 -499.68798828 359.43286133 C-492.12532915 355.25005585 -485.26243017 350.87295737 -478.625 345.3125 C-478.00753906 344.85488281 -477.39007813 344.39726562 -476.75390625 343.92578125 C-461.73741245 332.37729987 -452.17689081 312.77487522 -449.625 294.3125 C-448.12279632 274.04561167 -453.14556132 255.26129097 -466.546875 239.609375 C-467.23265625 238.85140625 -467.9184375 238.0934375 -468.625 237.3125 C-469.29015625 236.55453125 -469.9553125 235.7965625 -470.640625 235.015625 C-484.98760762 219.60590293 -507.31396651 210.0747555 -528.27001953 209.20239258 C-531.3265337 209.14217696 -534.38041244 209.12689293 -537.4375 209.125 C-538.98147461 209.10663086 -538.98147461 209.10663086 -540.55664062 209.08789062 C-546.41648352 209.07677138 -551.80216805 209.52684503 -557.51196289 210.86938477 C-560.23975127 211.44141664 -562.8492558 211.4585918 -565.625 211.3125 C-565.625 210.6525 -565.625 209.9925 -565.625 209.3125 C-540.52932813 198.69270825 -515.37282883 188.22682069 -490.17927551 177.84156799 C-480.38493667 173.80325763 -470.59797972 169.74722129 -460.8125 165.6875 C-459.12394232 164.9870599 -457.43538438 164.28662045 -455.74682617 163.58618164 C-452.38764408 162.19266904 -449.02852451 160.79900582 -445.66943359 159.40527344 C-438.0110264 156.2278393 -430.35174117 153.05252271 -422.6925354 149.87701416 C-418.41998891 148.10559311 -414.14749718 146.33403998 -409.875 144.5625 C-408.16666693 143.85416603 -406.4583336 143.1458327 -404.75 142.4375 C-403.904375 142.086875 -403.05875 141.73625 -402.1875 141.375 C-399.625 140.3125 -397.0625 139.25 -394.5 138.1875 C-393.65440018 137.83688507 -392.80880035 137.48627014 -391.93757629 137.12503052 C-390.2289897 136.41659292 -388.52040205 135.70815786 -386.81181335 134.99972534 C-382.54484626 133.23050809 -378.27789739 131.46124691 -374.01098633 129.69189453 C-366.27736415 126.48505802 -358.54360358 123.27855723 -350.80917358 120.07366943 C-333.74159551 113.00141014 -316.67663354 105.92312888 -299.625 98.8125 C-282.57647462 91.70316724 -265.51460493 84.62623439 -248.44989014 77.55586243 C-242.39387792 75.04639997 -236.33922366 72.53368146 -230.28515625 70.01953125 C-207.93997256 60.74123413 -185.57788936 51.50551528 -163.17938232 42.35662842 C-160.53194048 41.27446102 -157.88529029 40.19037492 -155.23876953 39.10595703 C-105.00693461 18.5329855 -55.03701515 -0.22017867 0 0 Z " fill="#FE8300" transform="translate(963.625,-0.3125)"/>
<path d="M0 0 C16.1813657 14.21925399 28.66109812 32.80698007 31.125 54.6875 C32.5014734 82.95238226 26.5904104 105.79642938 8.1875 127.5625 C-2.00396059 138.4252544 -14.60517472 146.33820783 -27.61499023 153.36938477 C-50.31184669 165.6399548 -68.22723439 182.27926967 -76.45703125 207.265625 C-78.09240251 212.80025832 -78.28797334 217.94846278 -78.1875 223.6875 C-78.19233398 225.06808594 -78.19233398 225.06808594 -78.19726562 226.4765625 C-78.03223137 247.78098399 -68.67347707 265.86820932 -53.875 280.6875 C-53.15441406 281.4196875 -52.43382812 282.151875 -51.69140625 282.90625 C-33.29191358 300.43620143 -8.04125589 307.27422635 16.81518555 307.10498047 C23.86139364 306.92435447 30.43948475 305.9844886 37.26171875 304.24609375 C40.12651933 303.6872036 41.40492455 303.88850747 44.125 304.6875 C43.13435547 305.09774414 42.14371094 305.50798828 41.12304688 305.93066406 C14.48008994 316.96535853 -12.14527255 328.04186075 -38.76220703 339.13916016 C-47.80153992 342.90775551 -56.8418267 346.67406142 -65.88204956 350.44052124 C-70.87973953 352.52275192 -75.87736655 354.60513367 -80.875 356.6875 C-82.8749997 357.52083406 -84.8749997 358.35416739 -86.875 359.1875 C-87.865 359.6 -88.855 360.0125 -89.875 360.4375 C-140.875 381.6875 -191.875 402.9375 -242.875 424.1875 C-244.3598716 424.80619713 -244.3598716 424.80619713 -245.8747406 425.43739319 C-247.87560406 426.27108545 -249.87646873 427.10477482 -251.87733459 427.9384613 C-256.8641335 430.01627939 -261.85091176 432.09414702 -266.83764648 434.17211914 C-275.99496665 437.98791507 -285.15245269 441.80331076 -294.31069946 445.61688232 C-297.45654735 446.92688563 -300.60230322 448.23710971 -303.74804688 449.54736328 C-307.8258222 451.24579593 -311.90399133 452.94327811 -315.98242188 454.64013672 C-324.83069196 458.32314889 -333.67385503 462.01672632 -342.49609375 465.76171875 C-343.94455762 466.37513441 -345.39304315 466.98849894 -346.84155273 467.60180664 C-349.4285362 468.69735864 -352.0122238 469.80018746 -354.59399414 470.90795898 C-355.71797607 471.38434814 -356.84195801 471.8607373 -358 472.3515625 C-358.95132813 472.75842285 -359.90265625 473.1652832 -360.8828125 473.58447266 C-363.79746345 474.65891725 -366.70653066 475.36946893 -369.72332764 476.09164429 C-373.69668742 477.19197404 -377.43894566 478.85591034 -381.2265625 480.46875 C-383.05023442 481.23181169 -384.87413687 481.9943226 -386.69824219 482.75634766 C-387.64485718 483.15364075 -388.59147217 483.55093384 -389.56677246 483.96026611 C-426.89081252 499.57628162 -464.53311235 512.02619355 -504.875 516.6875 C-506.17566406 516.83832031 -507.47632813 516.98914062 -508.81640625 517.14453125 C-512.17731989 517.44786281 -515.50130605 517.60080979 -518.875 517.6875 C-519.67776367 517.71328125 -520.48052734 517.7390625 -521.30761719 517.765625 C-579.81896271 519.44879927 -632.68017823 499.67724028 -685.76568604 477.48986816 C-695.59969388 473.37993951 -705.4513702 469.31338442 -715.30514526 465.25112915 C-738.34586701 455.7495667 -761.36569783 446.19755906 -784.38562012 436.64575195 C-790.2777479 434.20093555 -796.1700188 431.75646449 -802.0625 429.3125 C-802.90052155 428.96491638 -803.73854309 428.61733276 -804.60195923 428.25921631 C-818.35435627 422.5558337 -832.11348637 416.86884564 -845.875 411.1875 C-865.53487999 403.07105464 -885.18505716 394.93143251 -904.83056641 386.78027344 C-909.9219036 384.66790357 -915.01363036 382.55647393 -920.10546875 380.4453125 C-920.95210083 380.09428467 -921.79873291 379.74325684 -922.67102051 379.3815918 C-925.23900736 378.31687931 -927.80700211 377.25218586 -930.375 376.1875 C-949.20401525 368.38103474 -949.20401525 368.38103474 -958.43417358 364.55133057 C-976.27004292 357.15104522 -994.1098992 349.76059624 -1011.95870972 342.39157104 C-1019.65593202 339.21356008 -1027.35254896 336.03408317 -1035.04919434 332.85467529 C-1037.84812235 331.69860159 -1040.64719847 330.54288703 -1043.44628906 329.38720703 C-1055.26405304 324.506924 -1067.07535401 319.6114395 -1078.875 314.6875 C-1079.55844482 314.40259705 -1080.24188965 314.11769409 -1080.94604492 313.82415771 C-1120.93807421 297.1427467 -1159.17003833 278.57095799 -1191.875 249.6875 C-1192.720625 248.95273438 -1193.56625 248.21796875 -1194.4375 247.4609375 C-1205.12785136 238.03835217 -1215.23276374 228.03917653 -1223.875 216.6875 C-1224.4023877 215.99881836 -1224.92977539 215.31013672 -1225.47314453 214.60058594 C-1232.84036523 204.93252239 -1239.81859023 195.18725716 -1245.79638672 184.59619141 C-1246.92387829 182.60100601 -1248.07286866 180.61912735 -1249.22265625 178.63671875 C-1256.47033038 165.99593091 -1262.68792535 152.87228104 -1268.875 139.6875 C-1268.215 139.3575 -1267.555 139.0275 -1266.875 138.6875 C-1267.08648682 137.79611328 -1267.29797363 136.90472656 -1267.51586914 135.98632812 C-1269.50031567 126.99778136 -1270.37798695 118.47958507 -1270.32104492 109.28076172 C-1270.31249993 107.18748386 -1270.34151233 105.09692012 -1270.37304688 103.00390625 C-1270.50142792 78.0397287 -1259.0286456 55.35095444 -1242 37.5 C-1235.34169336 31.08591697 -1227.89141509 26.52983729 -1219.6875 22.375 C-1219.02234375 22.03726562 -1218.3571875 21.69953125 -1217.671875 21.3515625 C-1202.4924277 13.89763908 -1183.55263818 13.49980963 -1167.50390625 18.3671875 C-1156.49765826 22.37161357 -1147.51413622 27.80618275 -1138.875 35.6875 C-1138.18019531 36.30109375 -1137.48539063 36.9146875 -1136.76953125 37.546875 C-1127.13053619 46.55096619 -1120.64392965 57.88949596 -1114.3125 69.3125 C-1099.81282636 95.39850827 -1080.6576639 114.36060302 -1051.484375 123.14453125 C-1028.51823977 127.92341268 -1004.60040928 124.38294035 -984.78295898 111.56445312 C-969.16618604 100.94937082 -959.3742099 87.20143512 -952.875 69.6875 C-952.54371094 68.95660156 -952.21242188 68.22570313 -951.87109375 67.47265625 C-948.88958982 59.13613743 -948.51800464 50.78364161 -948.5625 42 C-948.56741455 40.85168701 -948.5723291 39.70337402 -948.57739258 38.52026367 C-948.77265444 24.33824411 -952.1693349 11.96586192 -956.875 -1.3125 C-957.54575803 -3.31113156 -958.21382028 -5.31067937 -958.875 -7.3125 C-943.72517244 -1.3718409 -928.69050835 4.82477852 -913.6875 11.125 C-898.39407277 17.54678629 -883.08417765 23.92609624 -867.75 30.25 C-866.78977936 30.64605438 -865.82955872 31.04210876 -864.84024048 31.45016479 C-862.90448667 32.24858481 -860.96873126 33.04700097 -859.03297424 33.84541321 C-858.08107712 34.23802841 -857.12917999 34.63064362 -856.1484375 35.03515625 C-854.72790321 35.62099739 -854.72790321 35.62099739 -853.27867126 36.21867371 C-843.6387365 40.19532858 -834.00648135 44.19042472 -824.375 48.1875 C-809.88090772 54.20184566 -795.38000757 60.19952874 -780.875 66.1875 C-766.26638951 72.21847552 -751.66115424 78.25746109 -737.0625 84.3125 C-736.22407562 84.66024475 -735.38565125 85.0079895 -734.52182007 85.36627197 C-727.80243564 88.15335781 -721.08339892 90.94128148 -714.36437988 93.72924805 C-708.4722521 96.17406445 -702.5799812 98.61853551 -696.6875 101.0625 C-695.43046768 101.58387543 -695.43046768 101.58387543 -694.14804077 102.11578369 C-680.39564373 107.8191663 -666.63651363 113.50615436 -652.875 119.1875 C-633.25032477 127.28941132 -613.63521683 135.41417987 -594.02490234 143.55078125 C-585.86161773 146.9378446 -577.69795876 150.32400514 -569.53408813 153.70965576 C-562.78167267 156.51018817 -562.78167267 156.51018817 -559.43766785 157.89950562 C-557.86958887 158.54868199 -556.29995915 159.19412672 -554.72871399 159.83560181 C-550.8531166 161.42209946 -547.0247477 163.0658191 -543.23046875 164.83886719 C-542.47677002 165.17957245 -541.72307129 165.52027771 -540.9465332 165.87130737 C-539.53432943 166.51158254 -538.13183982 167.17398361 -536.74291992 167.86331177 C-532.89290102 169.57706483 -530.51814527 169.90522341 -526.46557617 168.60009766 C-524.92582903 167.9860014 -523.39546338 167.34789881 -521.875 166.6875 C-520.37021505 166.09305724 -518.86541342 165.4986567 -517.3605957 164.90429688 C-515.75602186 164.24142505 -514.15281064 163.57524783 -512.55078125 162.90625 C-511.66804535 162.54062958 -510.78530945 162.17500916 -509.87582397 161.79830933 C-506.978526 160.59755269 -504.08303058 159.39251156 -501.1875 158.1875 C-499.13595827 157.33642652 -497.08427933 156.48568374 -495.0324707 155.63525391 C-490.76884518 153.86779453 -486.50581343 152.09891378 -482.24316406 150.32910156 C-473.30928506 146.62133302 -464.36724791 142.93335334 -455.42572021 139.24407959 C-434.91397903 130.77939545 -414.41496714 122.28410859 -393.91943359 113.78027344 C-384.54905619 109.89255158 -375.17745442 106.00778154 -365.80609131 102.12243652 C-363.23920977 101.05820459 -360.6723361 99.99395367 -358.10546875 98.9296875 C-357.25883667 98.57865967 -356.41220459 98.22763184 -355.53991699 97.8659668 C-350.46496571 95.76170101 -345.39028482 93.65678465 -340.31582642 91.55133057 C-320.53597184 83.34446578 -300.74944817 75.15399912 -280.95513916 66.98205566 C-262.26867557 59.26712684 -243.59236123 51.52789665 -224.91943359 43.78027344 C-219.8280964 41.66790357 -214.73636938 39.55647456 -209.64453125 37.4453125 C-208.79735535 37.09405807 -207.95017944 36.74280365 -207.07733154 36.38090515 C-203.65762768 34.96305895 -200.2379079 33.54525114 -196.81817627 32.12747192 C-187.3378508 28.19702799 -177.85788837 24.26571394 -168.37890625 20.33203125 C-159.84659273 16.79133575 -151.31300956 13.25371499 -142.77832031 9.71875 C-139.52990283 8.37328787 -136.28188105 7.02687726 -133.03417969 5.6796875 C-129.18113849 4.08162226 -125.32693949 2.48638018 -121.47189331 0.89315796 C-120.06894621 0.31287767 -118.66635765 -0.26827052 -117.26419067 -0.85043335 C-110.01941653 -3.85762016 -102.75068011 -6.78586647 -95.4140625 -9.5625 C-94.77798569 -9.80501999 -94.14190887 -10.04753998 -93.48655701 -10.29740906 C-62.32868401 -21.95802357 -26.88941984 -21.08160686 0 0 Z " fill="#0575C7" transform="translate(1492.875,1387.3125)"/>
<path d="M0 0 C2.55738005 2.55738005 3.36805999 5.00833029 4.73046875 8.3671875 C4.99727951 9.02040985 5.26409027 9.6736322 5.53898621 10.34664917 C6.11978432 11.77004759 6.69830589 13.19437652 7.27484131 14.61950684 C8.52183793 17.70126388 9.78024285 20.77832054 11.03796387 23.85571289 C11.69810271 25.47120999 12.35767982 27.08693673 13.01672363 28.70288086 C16.42979248 37.06849858 19.89640165 45.41145819 23.375 53.75 C23.83653976 54.85711838 23.83653976 54.85711838 24.30740356 55.98660278 C30.21451014 70.15409723 36.16939117 84.30139418 42.13166809 98.44573975 C42.45817856 99.22032532 42.78468903 99.99491089 43.12109375 100.79296875 C43.60729439 101.94638763 43.60729439 101.94638763 44.10331726 103.12310791 C47.47345708 111.12007132 50.83202883 119.12187258 54.1875 127.125 C54.58137909 128.06419785 54.58137909 128.06419785 54.98321533 129.02236938 C57.55542246 135.15613334 60.12243473 141.29195312 62.67578125 147.43359375 C64.85801781 152.67547437 67.10491923 157.88542561 69.375 163.08984375 C70.72447829 166.26452811 71.94517049 169.48012904 73.1640625 172.70703125 C76.65120505 181.82589597 80.53217815 190.77670918 84.375 199.75 C88.62990533 209.69935573 92.88313319 219.64941911 97.0390625 229.640625 C97.33968597 230.35659851 97.64030945 231.07257202 97.95004272 231.8102417 C100 236.76749553 100 236.76749553 100 239 C100.66 239 101.32 239 102 239 C112.6229631 264.1031661 123.09192382 289.26719047 133.47999573 314.46838379 C137.12749306 323.31479927 140.79134511 332.15438662 144.45928955 340.99234009 C152.83539392 361.17511153 161.19068547 381.36643902 169.51965332 401.56871033 C171.79069153 407.0753271 174.06905635 412.57883174 176.35380554 418.07977295 C193.41465822 459.17020124 210.11043127 501.24470272 214 546 C214.10957031 547.18335938 214.21914062 548.36671875 214.33203125 549.5859375 C219.65967441 616.21699468 195.78358441 677.26092105 170.28497314 737.4884491 C165.66165563 748.40961798 161.09826325 759.35470218 156.5625 770.3125 C156.21064636 771.1622641 155.85879272 772.0120282 155.49627686 772.88754272 C153.71060449 777.20032636 151.92564284 781.51340354 150.14111328 785.82666016 C146.95227631 793.53309186 143.75663356 801.23670153 140.56149292 808.94052124 C138.7907155 813.21023149 137.02038016 817.48012502 135.25 821.75 C134.54166878 823.45833421 133.83333545 825.16666754 133.125 826.875 C132.774375 827.720625 132.42375 828.56625 132.0625 829.4375 C60.87499992 1001.12500018 60.87499992 1001.12500018 59.81253052 1003.68742371 C59.10409292 1005.3960103 58.39565786 1007.10459795 57.68722534 1008.81318665 C55.91800809 1013.08015374 54.14874691 1017.34710261 52.37939453 1021.61401367 C49.172579 1029.34758526 45.96610284 1037.08129674 42.76123047 1044.81567383 C26.5291506 1083.98884898 26.5291506 1083.98884898 19.38671875 1101.08691406 C19.08308411 1101.81379425 18.77944946 1102.54067444 18.46661377 1103.2895813 C17.86147636 1104.73822947 17.25629287 1106.1868584 16.65106201 1107.63546753 C14.90940412 1111.80808802 13.18005049 1115.98553019 11.46144104 1120.16769409 C-10.62916576 1173.91004611 -38.85390907 1227.90165608 -86 1264 C-86.66354492 1264.51288574 -87.32708984 1265.02577148 -88.01074219 1265.55419922 C-121.39372215 1291.22486623 -162.34790712 1317.11591497 -206 1313 C-233.02804006 1309.2095096 -256.4586549 1296.89350825 -273.21875 1275.1171875 C-284.97789636 1257.42689276 -290.25983236 1236.83192373 -286.6015625 1215.69824219 C-281.34062726 1194.13852488 -265.59442033 1175.94430532 -247.15136719 1164.29833984 C-241.65701105 1160.9825221 -236.00808493 1157.92661167 -230.39770508 1154.81298828 C-223.0919895 1150.71995827 -216.45627129 1146.35639543 -210 1141 C-209.35675781 1140.50628906 -208.71351562 1140.01257812 -208.05078125 1139.50390625 C-192.24066626 1126.9623993 -181.03189068 1106.09630709 -178.23144531 1086.23095703 C-176.73540716 1071.81028543 -177.27762677 1057.74907355 -182 1044 C-182.36222656 1042.9378125 -182.72445313 1041.875625 -183.09765625 1040.78125 C-190.85149631 1020.38470801 -206.51588443 1004.7068867 -226.140625 995.64453125 C-251.11554007 984.73558037 -277.41286832 987.35602222 -302.41796875 996.6953125 C-304.978487 997.62793311 -307.36626241 998.3794878 -310 999 C-303.89080768 983.51314263 -297.57961207 968.11929497 -291.15942383 952.75952148 C-285.9484253 940.29066844 -280.77935482 927.8048677 -275.625 915.3125 C-274.00538108 911.38794952 -272.38557857 907.46347486 -270.765625 903.5390625 C-270.36608109 902.57114777 -269.96653717 901.60323303 -269.55488586 900.60598755 C-265.50444069 890.79587756 -261.4415161 880.99095732 -257.375 871.1875 C-257.0281012 870.35119049 -256.68120239 869.51488098 -256.3237915 868.65322876 C-254.5803117 864.450217 -252.83659658 860.24730291 -251.09277344 856.04443359 C-248.98040357 850.9530964 -246.86897393 845.86136964 -244.7578125 840.76953125 C-244.40678467 839.92289917 -244.05575684 839.07626709 -243.6940918 838.20397949 C-242.62937931 835.63599264 -241.56468586 833.06799789 -240.5 830.5 C-232.69353474 811.67098475 -232.69353474 811.67098475 -228.86383057 802.44082642 C-221.06049975 783.63355314 -213.27012698 764.82101795 -205.5 746 C-197.38355464 726.34012001 -189.24393251 706.68994284 -181.09277344 687.04443359 C-177.9148832 679.38492708 -174.73910717 671.72454391 -171.56314087 664.0642395 C-169.79866821 659.80842485 -168.03410611 655.55264728 -166.26953125 651.296875 C-165.91994858 650.45375259 -165.57036591 649.61063019 -165.21018982 648.74195862 C-163.40507741 644.38846136 -161.59984721 640.03501298 -159.79443359 635.68164062 C-159.4281485 634.79835083 -159.0618634 633.91506104 -158.68447876 633.00500488 C-157.94575174 631.22390543 -157.20679998 629.44289917 -156.46762085 627.6619873 C-154.66198859 623.31077929 -152.86022014 618.95805955 -151.06738281 614.6015625 C-148.1412069 607.50043697 -145.20781022 600.40874716 -142.08930969 593.38946533 C-140.90245347 590.71649041 -139.73467942 588.03537277 -138.56777954 585.3536377 C-137.7785144 583.56463278 -136.95851282 581.78928524 -136.13745117 580.01464844 C-133.21140213 573.54801505 -133.21140213 573.54801505 -133.7890625 566.71875 C-134.49717751 565.13262949 -135.23901941 563.56144602 -136 562 C-136.72577647 560.23117326 -137.45073663 558.4619857 -138.16522217 556.68856812 C-139.30536173 553.87655836 -140.48504604 551.08167131 -141.66271973 548.28521729 C-143.00013087 545.10914152 -144.33004343 541.92994052 -145.66064453 538.75100708 C-146.36632281 537.06536361 -147.07238334 535.37988012 -147.77880859 533.69454956 C-151.6262113 524.51450785 -155.43977387 515.32052039 -159.25 506.125 C-159.95979499 504.4127591 -160.6695932 502.70051953 -161.37939453 500.98828125 C-167.16672912 487.02438303 -172.93665252 473.05330555 -178.70489502 459.08151245 C-186.42000125 440.3945887 -194.15941439 421.71781663 -201.90722656 403.04443359 C-205.79494842 393.67405619 -209.67971846 384.30245442 -213.56506348 374.93109131 C-214.62929541 372.36420977 -215.69354633 369.7973361 -216.7578125 367.23046875 C-217.10884033 366.38383667 -217.45986816 365.53720459 -217.8215332 364.66491699 C-219.92579899 359.58996571 -222.03071535 354.51528482 -224.13616943 349.44082642 C-232.34303422 329.66097184 -240.53350088 309.87444817 -248.70544434 290.08013916 C-256.42037316 271.39367557 -264.15960335 252.71736123 -271.90722656 234.04443359 C-274.01959644 228.95309639 -276.13099455 223.86135657 -278.2421875 218.76953125 C-278.59375916 217.92172089 -278.94533081 217.07391052 -279.30755615 216.20040894 C-281.07390143 211.94067054 -282.83946767 207.68061219 -284.60351562 203.41992188 C-287.86991533 195.53289327 -291.14321702 187.64897684 -294.44329834 179.77597046 C-295.97318701 176.12481944 -297.498819 172.47189634 -299.02416992 168.81884766 C-299.74065363 167.10621482 -300.45913731 165.39441685 -301.17993164 163.68359375 C-306.26686825 151.60772231 -310.80597037 139.4137245 -315 127 C-315.27204254 126.21376251 -315.54408508 125.42752502 -315.82437134 124.61746216 C-323.50291518 102.18913019 -322.63358696 76.00499653 -312.25 54.6875 C-302.11126764 35.02723744 -286.63317593 21.00317127 -266 13 C-265.02933594 12.5875 -264.05867188 12.175 -263.05859375 11.75 C-245.92733587 5.57502845 -221.61449073 6.48716104 -205.0625 14.1875 C-204.3821167 14.49792236 -203.7017334 14.80834473 -203.00073242 15.12817383 C-190.85921962 20.76759639 -181.39345046 27.55493717 -172 37 C-171.2471875 37.7528125 -170.494375 38.505625 -169.71875 39.28125 C-161.47689323 48.04639927 -155.70252086 58.62139905 -150 69.125 C-145.90546606 76.63624852 -141.46206205 83.38548159 -136 90 C-135.29359375 90.87011719 -134.5871875 91.74023438 -133.859375 92.63671875 C-122.37018615 106.13031645 -105.82557712 116.6261338 -88 119 C-63.79105924 120.75738977 -44.08510181 113.54818978 -25.671875 98.0390625 C-10.33019823 83.72419087 1.01025965 60.39918991 2.14526367 39.29956055 C2.17023996 36.09534473 2.1893209 32.89183255 2.1875 29.6875 C2.18814453 28.53008301 2.18878906 27.37266602 2.18945312 26.18017578 C2.13506275 17.30836392 1.47994802 8.74754989 0 0 Z " fill="#B40000" transform="translate(1701,382)"/>
<path d="M0 0 C1.67520691 1.30158205 3.34317514 2.61259796 5 3.9375 C6.03125 4.68 7.0625 5.4225 8.125 6.1875 C21.59953867 19.07618916 29.65205057 36.28711843 30.34765625 54.8515625 C30.39249784 57.4008232 30.42228425 59.95039035 30.4375 62.5 C30.44765137 63.70648193 30.45780273 64.91296387 30.46826172 66.15600586 C30.33775991 79.69970429 26.75933278 92.25169544 23.07421875 105.18554688 C22.82027344 106.09240234 22.56632813 106.99925781 22.3046875 107.93359375 C22.07765137 108.72950928 21.85061523 109.5254248 21.61669922 110.34545898 C19.7025817 118.39066316 19.7821575 126.40473964 19.75 134.625 C19.729375 135.92373047 19.70875 137.22246094 19.6875 138.56054688 C19.5951334 161.54828569 29.21466276 182.72057761 45.12109375 199.125 C62.45128316 215.40583849 83.40596023 221.631668 106.7109375 221.1171875 C128.56520348 220.34180618 148.08523575 209.61416397 163 193.9375 C172.95618596 182.27870895 179.87798846 168.89754148 186 154.9375 C186.66 154.9375 187.32 154.9375 188 154.9375 C241.12500008 283.0625002 241.12500008 283.0625002 242.18753052 285.62507629 C242.89575959 287.33315637 243.60399119 289.04123539 244.31222534 290.74931335 C246.08467479 295.02401292 247.85707989 299.29873087 249.62939453 303.57348633 C252.79756109 311.21486355 255.96601227 318.85612194 259.13616943 326.49667358 C267.34303422 346.27652816 275.53350088 366.06305183 283.70544434 385.85736084 C291.42037316 404.54382443 299.15960335 423.22013877 306.90722656 441.89306641 C310.79494842 451.26344381 314.67971846 460.63504558 318.56506348 470.00640869 C319.62929541 472.57329023 320.69354633 475.1401639 321.7578125 477.70703125 C322.10884033 478.55366333 322.45986816 479.40029541 322.8215332 480.27258301 C325.27344334 486.18596361 327.72638269 492.09891665 330.1796875 498.01171875 C333.33636344 505.61984717 336.49080307 513.22889962 339.64344788 520.83869934 C341.59346793 525.54518146 343.54498568 530.25103634 345.49853516 534.95605469 C347.64658544 540.12960863 349.79190471 545.30428817 351.93560791 550.47964478 C352.75623258 552.45951032 353.5777738 554.43899628 354.40032959 556.4180603 C375.18608261 606.43629577 375.18608261 606.43629577 375.375 631.125 C375.38885742 632.20539551 375.40271484 633.28579102 375.41699219 634.39892578 C375.27682963 658.62122852 363.55405839 678.38344161 346.9375 695 C330.02059663 710.78910981 307.73406893 715.73123162 285.36035156 715.04248047 C260.16135461 713.92171416 239.17533497 699.75277618 222.54003906 681.70703125 C215.53527238 673.6584344 210.5687656 664.2307839 205.5625 654.875 C194.27313068 633.79951425 178.40590285 616.93315471 155.5 608.67578125 C145.83357595 605.75742229 137.00931805 605.44372069 127 605.9375 C125.72189453 605.9684375 125.72189453 605.9684375 124.41796875 606 C106.09526184 607.08780449 89.1186992 618.89511946 77 631.9375 C61.54169644 649.70977802 53.81214439 670.39459444 53.81469727 693.80957031 C53.81252711 696.03470465 53.79439334 698.25932927 53.77539062 700.484375 C53.74777515 707.71396571 53.98245703 714.64094128 55.5690918 721.73388672 C56 723.9375 56 723.9375 56 727.9375 C53 726.9375 53 726.9375 51.55224609 724.16992188 C51.03130951 722.92002822 50.52267454 721.66496818 50.0234375 720.40625 C49.74140472 719.72116364 49.45937195 719.03607727 49.16879272 718.33023071 C48.22729479 716.0366959 47.3014018 713.73716937 46.375 711.4375 C45.70849211 709.80666444 45.04082577 708.17630191 44.37207031 706.54638672 C42.95834304 703.09766923 41.55009418 699.64678595 40.14550781 696.19433594 C38.08392866 691.13388398 35.99625565 686.08458442 33.8984375 681.0390625 C33.55912201 680.22294495 33.21980652 679.40682739 32.87020874 678.565979 C32.17935705 676.90471267 31.48842854 675.24347828 30.79742432 673.58227539 C29.01241561 669.28810258 27.23258538 664.99178687 25.453125 660.6953125 C25.09167389 659.82259705 24.73022278 658.94988159 24.3578186 658.05072021 C19.66222603 646.71013268 14.979045 635.36441633 10.29510498 624.01901245 C2.57999875 605.3320887 -5.15941439 586.65531663 -12.90722656 567.98193359 C-16.0846607 560.3235264 -19.25997729 552.66424117 -22.43548584 545.0050354 C-24.20690689 540.73248891 -25.97846002 536.45999718 -27.75 532.1875 C-28.45833397 530.47916693 -29.1666673 528.7708336 -29.875 527.0625 C-30.225625 526.216875 -30.57625 525.37125 -30.9375 524.5 C-34.12499997 516.81250006 -34.12499997 516.81250006 -35.18753052 514.24992371 C-35.89575959 512.54184363 -36.60399119 510.83376461 -37.31222534 509.12568665 C-39.08467479 504.85098708 -40.85707989 500.57626913 -42.62939453 496.30151367 C-45.79756109 488.66013645 -48.96601227 481.01887806 -52.13616943 473.37832642 C-60.34303422 453.59847184 -68.53350088 433.81194817 -76.70544434 414.01763916 C-82.33489929 400.38243818 -87.97358917 386.75111575 -93.625 373.125 C-93.97241241 372.2872403 -94.31982483 371.44948059 -94.67776489 370.58633423 C-98.16676933 362.17307097 -101.65763005 353.7605833 -105.15266418 345.349823 C-108.68296023 336.85420356 -112.20640849 328.35579827 -115.72114563 319.85372925 C-117.58546053 315.3463601 -119.45581866 310.8416224 -121.3359375 306.34082031 C-156.2833367 222.66607747 -171.87039789 144.71287699 -142.8125 56.6875 C-142.48835114 55.69748489 -142.48835114 55.69748489 -142.15765381 54.68746948 C-141.53756138 52.8041898 -140.90379647 50.92542886 -140.26953125 49.046875 C-139.90448486 47.96374023 -139.53943848 46.88060547 -139.16333008 45.76464844 C-138.05199945 43.06387011 -136.96952295 41.08630627 -135 38.9375 C-134.34 38.9375 -133.68 38.9375 -133 38.9375 C-132.75378906 38.22980469 -132.50757813 37.52210938 -132.25390625 36.79296875 C-123.44298513 16.72822314 -101.82547176 0.38785494 -81.98828125 -7.90332031 C-55.11266063 -18.18628125 -23.95435791 -17.16567348 0 0 Z " fill="#298F18" transform="translate(170,798.0625)"/>
<path d="M0 0 C15.14982756 5.9406591 30.18449165 12.13727852 45.1875 18.4375 C60.48092723 24.85928629 75.79082235 31.23859624 91.125 37.5625 C92.08522064 37.95855438 93.04544128 38.35460876 94.03475952 38.76266479 C95.97051333 39.56108481 97.90626874 40.35950097 99.84202576 41.15791321 C100.79392288 41.55052841 101.74582001 41.94314362 102.7265625 42.34765625 C104.14709679 42.93349739 104.14709679 42.93349739 105.59632874 43.53117371 C115.2362635 47.50782858 124.86851865 51.50292472 134.5 55.5 C148.99409228 61.51434566 163.49499243 67.51202874 178 73.5 C192.60861049 79.53097552 207.21384576 85.56996109 221.8125 91.625 C222.65092438 91.97274475 223.48934875 92.3204895 224.35317993 92.67877197 C231.07256436 95.46585781 237.79160108 98.25378148 244.51062012 101.04174805 C250.4027479 103.48656445 256.2950188 105.93103551 262.1875 108.375 C263.44453232 108.89637543 263.44453232 108.89637543 264.72695923 109.42828369 C278.47935627 115.1316663 292.23848637 120.81865436 306 126.5 C325.62467523 134.60191132 345.23978317 142.72667987 364.85009766 150.86328125 C373.01338227 154.2503446 381.17704124 157.63650514 389.34091187 161.02215576 C391.89898374 162.08310398 394.45694346 163.14432225 397.01489258 164.20556641 C398.61408695 164.86883463 400.21328926 165.53208374 401.8125 166.1953125 C402.57988495 166.51372101 403.3472699 166.83212952 404.13790894 167.16018677 C408.01483088 168.767598 411.89436745 170.36824953 415.77856445 171.95800781 C416.54946411 172.27389862 417.32036377 172.58978943 418.11462402 172.91525269 C419.56489453 173.50904796 421.01570226 174.10153361 422.46716309 174.69241333 C426.91212562 176.51284838 431.23269748 178.47779427 435.48828125 180.703125 C437.40276048 181.69162749 439.34280369 182.63078323 441.29296875 183.546875 C463.23151727 193.97785336 482.39056802 211.41359224 491.3203125 234.3984375 C492.34065312 237.58038863 493.21404101 240.7527484 494 244 C494.22429688 244.87785156 494.44859375 245.75570313 494.6796875 246.66015625 C499.29099804 267.60055959 494.97386324 289.57478293 484.1875 307.875 C480.33931425 313.80884367 475.91401402 318.93326525 471 324 C470.17435547 324.93585938 470.17435547 324.93585938 469.33203125 325.890625 C456.34972863 340.12307528 434.39548516 347.94027787 415.54858398 349.15844727 C396.76420035 349.95587356 379.79439312 346.92150633 362.046875 340.89453125 C341.15362607 334.76048766 316.76899105 335.65601296 297.25 345.5625 C279.79583335 355.12599045 269.76417483 370.68318209 262.89453125 388.9375 C256.44843342 411.21134038 260.99291481 437.51342045 271.87158203 457.67333984 C280.57731426 472.97933037 292.57792482 485.58708561 307.28515625 495.16015625 C309.48829559 496.65321903 311.23095743 498.03507728 313 500 C309.06760658 499.34490271 305.63911143 498.16492233 301.953125 496.65625 C300.73802246 496.16108887 299.52291992 495.66592773 298.27099609 495.15576172 C296.93060068 494.6039951 295.5902709 494.05206901 294.25 493.5 C292.82774908 492.91785692 291.40538272 492.33599582 289.98291016 491.75439453 C275.26690596 485.72893921 260.58344328 479.62393839 245.8984375 473.5234375 C234.60577889 468.83242343 223.30327332 464.16536589 212 459.5 C197.39128294 453.46928345 182.78615373 447.43003869 168.1875 441.375 C166.92986343 440.85338287 166.92986343 440.85338287 165.64682007 440.32122803 C158.92743564 437.53414219 152.20839892 434.74621852 145.48937988 431.95825195 C139.5972521 429.51343555 133.7049812 427.06896449 127.8125 424.625 C126.97447845 424.27741638 126.13645691 423.92983276 125.27304077 423.57171631 C111.52064373 417.8683337 97.76151363 412.18134564 84 406.5 C64.34012001 398.38355464 44.68994284 390.24393251 25.04443359 382.09277344 C17.3860264 378.9153393 9.72674117 375.74002271 2.0675354 372.56451416 C-2.20501109 370.79309311 -6.47750282 369.02153998 -10.75 367.25 C-12.45833307 366.54166603 -14.1666664 365.8333327 -15.875 365.125 C-26.12499998 360.87500001 -26.12499998 360.87500001 -28.68742371 359.81253052 C-30.3960103 359.10409292 -32.10459795 358.39565786 -33.81318665 357.68722534 C-38.08015374 355.91800809 -42.34710261 354.14874691 -46.61401367 352.37939453 C-56.08606819 348.4516968 -65.55855238 344.52503904 -75.0316925 340.59996033 C-79.33615906 338.81628773 -83.6402645 337.03175272 -87.94360352 335.24536133 C-89.6368805 334.54247804 -91.33015849 333.83959717 -93.0234375 333.13671875 C-93.85473679 332.79161758 -94.68603607 332.44651642 -95.54252625 332.09095764 C-100.45266418 330.05361897 -105.36588447 328.02394817 -110.28173828 326.0004425 C-154.13205185 307.94527362 -199.04002863 289.01402287 -234 256 C-235.24596449 254.93277054 -236.49593956 253.87020443 -237.75 252.8125 C-247.7203522 244.09602576 -256.97746736 234.53608588 -265 224 C-265.5259375 223.31276855 -266.051875 222.62553711 -266.59375 221.91748047 C-273.96262692 212.24788555 -280.94248759 202.50171074 -286.92138672 191.90869141 C-288.04887829 189.91350601 -289.19786866 187.93162735 -290.34765625 185.94921875 C-297.59533038 173.30843091 -303.81292535 160.18478104 -310 147 C-309.34 146.67 -308.68 146.34 -308 146 C-308.21148682 145.10861328 -308.42297363 144.21722656 -308.64086914 143.29882812 C-310.62531567 134.31028136 -311.50298695 125.79208507 -311.44604492 116.59326172 C-311.43749993 114.49998386 -311.46651233 112.40942012 -311.49804688 110.31640625 C-311.62642792 85.3522287 -300.1536456 62.66345444 -283.125 44.8125 C-276.46669336 38.39841697 -269.01641509 33.84233729 -260.8125 29.6875 C-260.14734375 29.34976562 -259.4821875 29.01203125 -258.796875 28.6640625 C-243.6174277 21.21013908 -224.67763818 20.81230963 -208.62890625 25.6796875 C-197.62265826 29.68411357 -188.63913622 35.11868275 -180 43 C-179.30519531 43.61359375 -178.61039063 44.2271875 -177.89453125 44.859375 C-168.25553619 53.86346619 -161.76892965 65.20199596 -155.4375 76.625 C-140.93782636 102.71100827 -121.7826639 121.67310302 -92.609375 130.45703125 C-69.64323977 135.23591268 -45.72540928 131.69544035 -25.90795898 118.87695312 C-10.29118604 108.26187082 -0.4992099 94.51393512 6 77 C6.33128906 76.26910156 6.66257812 75.53820313 7.00390625 74.78515625 C9.98541018 66.44863743 10.35699536 58.09614161 10.3125 49.3125 C10.30758545 48.16418701 10.3026709 47.01587402 10.29760742 45.83276367 C10.10234556 31.65074411 6.7056651 19.27836192 2 6 C1.32924197 4.00136844 0.66117972 2.00182063 0 0 Z " fill="#28C7F3" transform="translate(534,1380)"/>
<path d="M0 0 C2.55738005 2.55738005 3.36805999 5.00833029 4.73046875 8.3671875 C4.99727951 9.02040985 5.26409027 9.6736322 5.53898621 10.34664917 C6.11978432 11.77004759 6.69830589 13.19437652 7.27484131 14.61950684 C8.52183793 17.70126388 9.78024285 20.77832054 11.03796387 23.85571289 C11.69810271 25.47120999 12.35767982 27.08693673 13.01672363 28.70288086 C16.42979248 37.06849858 19.89640165 45.41145819 23.375 53.75 C23.83653976 54.85711838 23.83653976 54.85711838 24.30740356 55.98660278 C30.21451014 70.15409723 36.16939117 84.30139418 42.13166809 98.44573975 C42.45817856 99.22032532 42.78468903 99.99491089 43.12109375 100.79296875 C43.60729439 101.94638763 43.60729439 101.94638763 44.10331726 103.12310791 C47.47345708 111.12007132 50.83202883 119.12187258 54.1875 127.125 C54.58137909 128.06419785 54.58137909 128.06419785 54.98321533 129.02236938 C57.55542246 135.15613334 60.12243473 141.29195312 62.67578125 147.43359375 C64.85801781 152.67547437 67.10491923 157.88542561 69.375 163.08984375 C70.72447829 166.26452811 71.94517049 169.48012904 73.1640625 172.70703125 C76.65120505 181.82589597 80.53217815 190.77670918 84.375 199.75 C88.62990533 209.69935573 92.88313319 219.64941911 97.0390625 229.640625 C97.33968597 230.35659851 97.64030945 231.07257202 97.95004272 231.8102417 C100 236.76749553 100 236.76749553 100 239 C100.66 239 101.32 239 102 239 C112.6229631 264.1031661 123.09192382 289.26719047 133.47999573 314.46838379 C137.12749306 323.31479927 140.79134511 332.15438662 144.45928955 340.99234009 C152.83539392 361.17511153 161.19068547 381.36643902 169.51965332 401.56871033 C171.79069153 407.0753271 174.06905635 412.57883174 176.35380554 418.07977295 C193.41465822 459.17020124 210.11043127 501.24470272 214 546 C214.10957031 547.18335938 214.21914062 548.36671875 214.33203125 549.5859375 C218.15643215 597.41644471 207.91005337 644.75017527 190 689 C189.34 689 188.68 689 188 689 C187.74347656 689.89203125 187.48695313 690.7840625 187.22265625 691.703125 C185.25974406 696.9960895 181.63918327 700.7521947 178 705 C177.29359375 705.84175781 176.5871875 706.68351562 175.859375 707.55078125 C162.40192134 723.11398756 145.68074507 733.39844855 126 739 C125.3301709 739.19432617 124.6603418 739.38865234 123.97021484 739.58886719 C102.27821204 745.17748421 79.04571691 741.17285868 60 730 C56.79233656 727.86477825 53.87212141 725.56598443 51 723 C50.31421875 722.39542969 49.6284375 721.79085937 48.921875 721.16796875 C40.28456341 713.07460999 34.92822495 703.07167512 31 692 C30.60941406 690.9634729 30.60941406 690.9634729 30.2109375 689.90600586 C27.66948223 682.52443981 27.46242919 675.44636572 27.5 667.6875 C27.50531738 665.70858765 27.50531738 665.70858765 27.51074219 663.68969727 C27.65105978 652.26966415 29.58695597 641.85968555 33 631 C33.38027344 629.77410156 33.76054688 628.54820312 34.15234375 627.28515625 C34.79514678 625.24516625 35.44063762 623.2060186 36.09033203 621.16821289 C41.37599892 602.75916856 41.97281818 578.96929538 35 561 C34.63777344 559.96617187 34.27554687 558.93234375 33.90234375 557.8671875 C29.39887469 545.929178 21.88327531 536.04105996 13 527 C12.38769531 526.37480469 11.77539062 525.74960937 11.14453125 525.10546875 C-4.44982271 510.37562055 -27.54397351 503.3875202 -48.61547852 503.51464844 C-69.20033747 504.21181469 -87.99156132 513.1757606 -103 527 C-103.61746094 527.53753906 -104.23492188 528.07507813 -104.87109375 528.62890625 C-118.50676617 541.19387922 -126.33043479 559.06956524 -133 576 C-134 573 -134 573 -133.39160156 571.25537109 C-132.78486704 567.76097365 -134.34247635 565.05129748 -135.734375 561.9140625 C-136.03884048 561.20240936 -136.34330597 560.49075623 -136.65699768 559.75753784 C-137.32447986 558.20057632 -137.99712767 556.64582183 -138.67422485 555.09301758 C-140.1534648 551.69938071 -141.60702146 548.29493404 -143.06221008 544.89093018 C-143.8396964 543.07265441 -144.61844215 541.25491672 -145.39836121 539.43768311 C-149.80228613 529.16602499 -154.05878793 518.83454037 -158.3125 508.5 C-159.1126392 506.55910001 -159.91293322 504.61826384 -160.71337891 502.67749023 C-162.33215939 498.75220687 -163.95028721 494.82665553 -165.56787109 490.90087891 C-169.58164399 481.16091082 -173.6033922 471.42423503 -177.625 461.6875 C-178.01916107 460.73308014 -178.41332214 459.77866028 -178.81942749 458.7953186 C-186.49753902 440.20429097 -194.19880121 421.62290878 -201.90722656 403.04443359 C-205.79494842 393.67405619 -209.67971846 384.30245442 -213.56506348 374.93109131 C-214.62929541 372.36420977 -215.69354633 369.7973361 -216.7578125 367.23046875 C-217.10884033 366.38383667 -217.45986816 365.53720459 -217.8215332 364.66491699 C-219.92579899 359.58996571 -222.03071535 354.51528482 -224.13616943 349.44082642 C-232.34303422 329.66097184 -240.53350088 309.87444817 -248.70544434 290.08013916 C-256.42037316 271.39367557 -264.15960335 252.71736123 -271.90722656 234.04443359 C-274.01959644 228.95309639 -276.13099455 223.86135657 -278.2421875 218.76953125 C-278.59375916 217.92172089 -278.94533081 217.07391052 -279.30755615 216.20040894 C-281.07390143 211.94067054 -282.83946767 207.68061219 -284.60351562 203.41992188 C-287.86991533 195.53289327 -291.14321702 187.64897684 -294.44329834 179.77597046 C-295.97318701 176.12481944 -297.498819 172.47189634 -299.02416992 168.81884766 C-299.74065363 167.10621482 -300.45913731 165.39441685 -301.17993164 163.68359375 C-306.26686825 151.60772231 -310.80597037 139.4137245 -315 127 C-315.27204254 126.21376251 -315.54408508 125.42752502 -315.82437134 124.61746216 C-323.50291518 102.18913019 -322.63358696 76.00499653 -312.25 54.6875 C-302.11126764 35.02723744 -286.63317593 21.00317127 -266 13 C-265.02933594 12.5875 -264.05867188 12.175 -263.05859375 11.75 C-245.92733587 5.57502845 -221.61449073 6.48716104 -205.0625 14.1875 C-204.3821167 14.49792236 -203.7017334 14.80834473 -203.00073242 15.12817383 C-190.85921962 20.76759639 -181.39345046 27.55493717 -172 37 C-171.2471875 37.7528125 -170.494375 38.505625 -169.71875 39.28125 C-161.47689323 48.04639927 -155.70252086 58.62139905 -150 69.125 C-145.90546606 76.63624852 -141.46206205 83.38548159 -136 90 C-135.29359375 90.87011719 -134.5871875 91.74023438 -133.859375 92.63671875 C-122.37018615 106.13031645 -105.82557712 116.6261338 -88 119 C-63.79105924 120.75738977 -44.08510181 113.54818978 -25.671875 98.0390625 C-10.33019823 83.72419087 1.01025965 60.39918991 2.14526367 39.29956055 C2.17023996 36.09534473 2.1893209 32.89183255 2.1875 29.6875 C2.18814453 28.53008301 2.18878906 27.37266602 2.18945312 26.18017578 C2.13506275 17.30836392 1.47994802 8.74754989 0 0 Z " fill="#FE0000" transform="translate(1701,382)"/>
<path d="M0 0 C0.97121796 0.00215515 1.94243591 0.0043103 2.94308472 0.00653076 C17.28846041 0.05758665 31.26968819 0.48686788 45.375 3.3125 C46.40689453 3.51117676 47.43878906 3.70985352 48.50195312 3.91455078 C72.09290243 8.53785045 97.72822721 14.4891136 119.375 25.3125 C119.375 25.9725 119.375 26.6325 119.375 27.3125 C120.10332031 27.56902344 120.83164063 27.82554688 121.58203125 28.08984375 C126.49831606 30.24200759 130.29988193 33.87486385 134.375 37.3125 C135.19484375 37.98410156 136.0146875 38.65570313 136.859375 39.34765625 C154.44074217 54.32541331 167.96798981 76.65349333 170.20068359 99.91113281 C171.85902977 122.75636109 168.36697977 144.37018309 153.1328125 162.37109375 C152.55273438 163.01175781 151.97265625 163.65242187 151.375 164.3125 C150.79492188 164.98410156 150.21484375 165.65570313 149.6171875 166.34765625 C137.66419516 179.32590526 118.91786714 186.85448493 101.38671875 187.6484375 C99.61218299 187.67832022 97.83728448 187.69069235 96.0625 187.6875 C95.11189697 187.68588867 94.16129395 187.68427734 93.18188477 187.68261719 C79.79599353 187.45643299 67.07098861 184.38304239 54.38671875 180.2578125 C45.53334712 177.47893321 36.64400103 175.69870838 27.375 175.3125 C26.69695313 175.27995117 26.01890625 175.24740234 25.3203125 175.21386719 C-0.26731613 174.11820316 -21.65281794 182.0392582 -41.1796875 198.4609375 C-47.67278275 204.5046836 -52.16107698 211.72470102 -56.625 219.3125 C-57.38490234 220.59640625 -57.38490234 220.59640625 -58.16015625 221.90625 C-63.25741433 231.25901712 -66.21164938 242.66872161 -66.625 253.3125 C-66.6765625 254.41851562 -66.728125 255.52453125 -66.78125 256.6640625 C-67.37665675 280.62918424 -58.55169438 302.37002285 -42.19335938 319.74414062 C-31.14256617 330.79493383 -17.39839651 338.81026565 -2.85546875 344.3046875 C-0.625 345.3125 -0.625 345.3125 0.375 347.3125 C-0.97247314 347.80230347 -0.97247314 347.80230347 -2.34716797 348.30200195 C-13.26335636 352.31137797 -23.99254907 356.7242579 -34.71383667 361.22543335 C-40.00847741 363.44809787 -45.30729908 365.66076389 -50.60546875 367.875 C-51.69040115 368.32872482 -52.77533356 368.78244965 -53.8931427 369.24992371 C-64.93609695 373.86603896 -75.99764874 378.436677 -87.0625 383 C-90.87767872 384.57403809 -94.69276097 386.14830992 -98.5078125 387.72265625 C-99.43818832 388.10656021 -100.36856415 388.49046417 -101.32713318 388.88600159 C-111.03493621 392.89268504 -120.73684704 396.91354181 -130.4375 400.9375 C-131.27489716 401.28485199 -132.11229431 401.63220398 -132.97506714 401.99008179 C-137.17697995 403.7331046 -141.37879659 405.47635908 -145.58056641 407.21972656 C-154.95094381 411.10744842 -164.32254558 414.99221846 -173.69390869 418.87756348 C-176.26079023 419.94179541 -178.8276639 421.00604633 -181.39453125 422.0703125 C-182.24116333 422.42134033 -183.08779541 422.77236816 -183.96008301 423.1340332 C-189.03503429 425.23829899 -194.10971518 427.34321535 -199.18417358 429.44866943 C-218.96402816 437.65553422 -238.75055183 445.84600088 -258.54486084 454.01794434 C-277.23132443 461.73287316 -295.90763877 469.47210335 -314.58056641 477.21972656 C-319.6719036 479.33209643 -324.76363167 481.44352291 -329.85546875 483.5546875 C-330.70296188 483.90607788 -331.55045502 484.25746826 -332.42362976 484.61950684 C-336.68918551 486.38806971 -340.95479597 488.15650054 -345.22045898 489.92480469 C-354.83086261 493.90892833 -364.43996488 497.89616447 -374.04766846 501.88679504 C-380.92911625 504.74443281 -387.81363225 507.59461177 -394.69940186 510.44181824 C-399.57926726 512.46097097 -404.4516917 514.49685831 -409.3203125 516.54296875 C-420.13433836 521.06155156 -430.96946848 525.26834308 -442.125 528.875 C-443.12208984 529.19799072 -444.11917969 529.52098145 -445.14648438 529.85375977 C-468.57326086 537.16372294 -493.21799699 536.85153486 -515.15649414 525.37475586 C-534.75863903 514.70884672 -547.87373489 499.77272394 -556.625 479.3125 C-556.89892578 478.68875488 -557.17285156 478.06500977 -557.45507812 477.42236328 C-564.64708105 460.29404053 -564.90545835 436.47116705 -558.30078125 419.12890625 C-557.75637547 417.85063482 -557.19709457 416.57862136 -556.625 415.3125 C-556.30321777 414.59819824 -555.98143555 413.88389648 -555.64990234 413.14794922 C-551.17885582 403.53488565 -545.85383034 395.12368795 -538.625 387.3125 C-537.94050781 386.54808594 -537.25601562 385.78367187 -536.55078125 384.99609375 C-526.01935771 373.80280625 -513.01187399 366.74302507 -499.68798828 359.43286133 C-492.12532915 355.25005585 -485.26243017 350.87295737 -478.625 345.3125 C-478.00753906 344.85488281 -477.39007813 344.39726562 -476.75390625 343.92578125 C-461.73741245 332.37729987 -452.17689081 312.77487522 -449.625 294.3125 C-448.12279632 274.04561167 -453.14556132 255.26129097 -466.546875 239.609375 C-467.23265625 238.85140625 -467.9184375 238.0934375 -468.625 237.3125 C-469.29015625 236.55453125 -469.9553125 235.7965625 -470.640625 235.015625 C-484.98760762 219.60590293 -507.31396651 210.0747555 -528.27001953 209.20239258 C-531.3265337 209.14217696 -534.38041244 209.12689293 -537.4375 209.125 C-538.98147461 209.10663086 -538.98147461 209.10663086 -540.55664062 209.08789062 C-546.41648352 209.07677138 -551.80216805 209.52684503 -557.51196289 210.86938477 C-560.23975127 211.44141664 -562.8492558 211.4585918 -565.625 211.3125 C-565.625 210.6525 -565.625 209.9925 -565.625 209.3125 C-540.52932813 198.69270825 -515.37282883 188.22682069 -490.17927551 177.84156799 C-480.38493667 173.80325763 -470.59797972 169.74722129 -460.8125 165.6875 C-459.12394232 164.9870599 -457.43538438 164.28662045 -455.74682617 163.58618164 C-452.38764408 162.19266904 -449.02852451 160.79900582 -445.66943359 159.40527344 C-438.0110264 156.2278393 -430.35174117 153.05252271 -422.6925354 149.87701416 C-418.41998891 148.10559311 -414.14749718 146.33403998 -409.875 144.5625 C-408.16666693 143.85416603 -406.4583336 143.1458327 -404.75 142.4375 C-403.904375 142.086875 -403.05875 141.73625 -402.1875 141.375 C-399.625 140.3125 -397.0625 139.25 -394.5 138.1875 C-393.65440018 137.83688507 -392.80880035 137.48627014 -391.93757629 137.12503052 C-390.2289897 136.41659292 -388.52040205 135.70815786 -386.81181335 134.99972534 C-382.54484626 133.23050809 -378.27789739 131.46124691 -374.01098633 129.69189453 C-366.27736415 126.48505802 -358.54360358 123.27855723 -350.80917358 120.07366943 C-333.74159551 113.00141014 -316.67663354 105.92312888 -299.625 98.8125 C-282.57647462 91.70316724 -265.51460493 84.62623439 -248.44989014 77.55586243 C-242.39387792 75.04639997 -236.33922366 72.53368146 -230.28515625 70.01953125 C-207.93997256 60.74123413 -185.57788936 51.50551528 -163.17938232 42.35662842 C-160.53194048 41.27446102 -157.88529029 40.19037492 -155.23876953 39.10595703 C-105.00693461 18.5329855 -55.03701515 -0.22017867 0 0 Z " fill="#FECB00" transform="translate(963.625,-0.3125)"/>
<path d="M0 0 C0.66 0.33 1.32 0.66 2 1 C-7.24 10.24 -16.48 19.48 -26 29 C-26.66 28.67 -27.32 28.34 -28 28 C-19.06761255 18.18523385 -9.85894144 8.88503385 0 0 Z " fill="#77C916" transform="translate(305,263)"/>
<path d="M0 0 C-5.22270869 2.66464729 -8.0819503 3.32854177 -14 2 C-14 1.67 -14 1.34 -14 1 C-12.41913952 0.63495397 -10.83516093 0.28339494 -9.25 -0.0625 C-8.36828125 -0.25972656 -7.4865625 -0.45695312 -6.578125 -0.66015625 C-4.01320972 -0.99825872 -2.42908361 -0.81158635 0 0 Z " fill="#2F598D" transform="translate(1537,1692)"/>
<path d="M0 0 C0.33 0 0.66 0 1 0 C1.33 2.97 1.66 5.94 2 9 C1.01 8.67 0.02 8.34 -1 8 C-1.625 5.6875 -1.625 5.6875 -2 3 C-1.34 2.01 -0.68 1.02 0 0 Z " fill="#35A247" transform="translate(224,1517)"/>
<path d="M0 0 C1.32 0.33 2.64 0.66 4 1 C1.375 5.875 1.375 5.875 -2 7 C-1.34 4.69 -0.68 2.38 0 0 Z " fill="#5ABB19" transform="translate(36,831)"/>
<path d="M0 0 C0 1.32 0 2.64 0 4 C-1.98 4 -3.96 4 -6 4 C-6 3.34 -6 2.68 -6 2 C-2.25 0 -2.25 0 0 0 Z " fill="#D3BF04" transform="translate(404,207)"/>
</svg>
